<svg width="232" height="64" viewBox="0 0 232 64" fill="none" xmlns="http://www.w3.org/2000/svg">
<g filter="url(#filter0_d_2768_1868)">
<path d="M221.142 45.5093C221.142 43.9766 222.277 42.8413 223.753 42.8413C225.229 42.8413 226.365 43.9766 226.365 45.5093C226.365 47.0419 225.229 48.1773 223.753 48.1773C222.334 48.1773 221.142 47.0419 221.142 45.5093ZM223.753 48.7449C225.513 48.7449 226.989 47.3825 226.989 45.5093C226.989 43.636 225.513 42.2736 223.753 42.2736C221.994 42.2736 220.461 43.636 220.461 45.5093C220.518 47.3825 221.994 48.7449 223.753 48.7449ZM223.072 45.7363H223.697L224.662 47.3258H225.286L224.207 45.6796C224.775 45.6228 225.172 45.339 225.172 44.6578C225.172 43.9198 224.718 43.5792 223.867 43.5792H222.448V47.269H223.015V45.7363H223.072ZM223.072 45.2822V44.1469H223.867C224.264 44.1469 224.662 44.2604 224.662 44.7145C224.662 45.2822 224.207 45.339 223.753 45.339H223.072V45.2822Z" fill="white"/>
<path d="M146.892 24.1089C147.006 24.1089 147.12 24.1089 147.176 24.1089C147.46 24.1089 147.801 24.1657 148.141 24.1657C148.425 24.1657 148.766 24.1657 149.05 24.1657C149.39 24.1657 149.731 24.1657 150.128 24.1657C150.582 24.1657 151.036 24.1657 151.49 24.1657C152.91 24.1657 154.386 24.1657 155.805 24.1657C157.451 24.1657 159.097 24.2224 160.687 24.2224C162.106 24.2792 163.525 24.336 164.944 24.3927C166.363 24.4495 167.839 24.563 169.258 24.6198C170.904 24.7333 172.551 24.7901 174.254 24.8469C176.411 24.9604 178.568 25.0739 180.668 25.1874C182.371 25.301 184.017 25.4145 185.72 25.4713C187.48 25.5848 189.183 25.6983 190.886 25.7551C191.454 25.8119 192.021 25.8119 192.589 25.8686C192.646 25.8686 193.27 25.8686 193.27 25.8119C193.27 25.7551 192.532 25.6983 192.475 25.6416C191.624 25.528 190.772 25.4145 189.921 25.3577C189.296 25.301 188.672 25.2442 188.104 25.1874C187.253 25.1307 186.458 25.0739 185.663 24.9604C184.131 24.8469 182.655 24.7333 181.065 24.6766C181.009 24.6766 180.952 24.6766 180.838 24.6198C180.782 24.6198 180.725 24.6198 180.725 24.6198C180.668 24.6198 180.668 24.6198 180.611 24.6198C180.555 24.6198 180.555 24.6198 180.555 24.6198L180.668 24.7333C180.782 24.6766 180.952 24.6766 181.065 24.6766C181.122 24.6198 181.009 24.6198 181.009 24.6198C180.952 24.6198 180.895 24.6198 180.782 24.563C180.668 24.563 180.498 24.563 180.441 24.5063C180.214 24.5063 180.1 24.5063 179.873 24.4495C179.646 24.4495 179.362 24.3927 179.079 24.3927C178.284 24.336 177.546 24.336 176.808 24.2792C173.856 24.1657 170.961 23.9954 168.009 23.8818C163.752 23.7683 159.494 23.598 155.237 23.5412C151.036 23.4277 146.836 23.4277 142.635 23.4277C140.989 23.4277 139.343 23.4277 137.753 23.4277C136.618 23.4277 135.539 23.4277 134.404 23.4277C134.29 23.4277 134.177 23.4277 134.063 23.4277C133.836 23.4277 133.723 23.4277 133.496 23.4277C132.985 23.4845 132.474 23.4845 131.963 23.4845C130.771 23.5412 129.579 23.5412 128.387 23.598C127.933 23.6548 127.535 23.6548 127.081 23.6548C126.968 23.7115 126.797 23.7115 126.684 23.7115C126.627 23.7115 126.627 23.7115 126.57 23.7115H126.514L126.57 23.6548C126.627 23.6548 126.627 23.6548 126.684 23.6548C126.797 23.6548 126.968 23.6548 127.138 23.598C127.819 23.5412 128.557 23.5412 129.295 23.4845C134.688 23.2574 140.024 23.1439 145.36 23.2006C148.255 23.2006 151.093 23.2574 153.931 23.3142C156.089 23.3709 158.302 23.4277 160.516 23.5412C160.857 23.598 161.254 23.598 161.595 23.598C162.049 23.598 162.503 23.6548 163.014 23.6548C164.149 23.7115 165.285 23.7115 166.477 23.7683C169.372 23.8818 172.324 23.9954 175.219 24.1089C178.397 24.2224 181.633 24.4495 184.869 24.6766C186.401 24.7901 187.934 24.9036 189.467 25.0739C190.829 25.1874 192.192 25.3577 193.554 25.528C193.895 25.5848 194.235 25.6416 194.576 25.6416C194.916 25.6983 195.37 25.6983 195.768 25.7551C196.619 25.8686 197.528 25.9822 198.379 26.0389C200.082 26.2092 201.728 26.3795 203.431 26.4931C203.942 26.5498 204.51 26.6066 205.077 26.6066C205.191 26.6634 205.361 26.6634 205.475 26.6634C205.475 26.6634 205.645 26.6634 205.588 26.6634C205.588 26.6066 205.531 26.6066 205.531 26.6066C205.475 26.6066 205.418 26.6066 205.304 26.5498C205.191 26.5498 205.077 26.4931 205.021 26.4931C204.907 26.4363 204.737 26.4363 204.566 26.4363C203.658 26.3228 202.636 26.2092 201.728 26.0957C200.082 25.9254 198.436 25.7551 196.846 25.5848C196.619 25.5848 196.449 25.528 196.222 25.528C196.108 25.528 195.938 25.4713 195.768 25.4713C195.597 25.4145 195.427 25.4145 195.257 25.3577C194.973 25.301 194.86 25.1307 194.462 25.0739C194.292 25.0171 194.178 25.0171 194.008 24.9604C193.951 24.9604 193.951 24.9036 193.951 24.9036H194.008C194.065 24.9036 194.065 24.9036 194.065 24.9036C194.122 24.9036 194.122 24.9036 194.178 24.9036C194.235 24.9604 194.292 24.9604 194.292 24.9604C194.405 24.9604 194.519 25.0171 194.632 25.0171C194.973 25.0739 195.314 25.1307 195.654 25.1307C196.733 25.2442 197.811 25.4145 198.833 25.528C200.309 25.7551 201.842 25.8686 203.318 26.0389C205.191 26.266 207.007 26.4931 208.881 26.6634C209.959 26.7769 211.038 26.8904 212.116 26.9472C213.252 27.0607 214.33 27.1742 215.465 27.2878C216.317 27.4013 217.112 27.5716 217.906 27.6851C219.042 27.8554 220.177 28.0257 221.312 28.2528C221.426 28.3096 221.596 28.3096 221.767 28.3663C221.88 28.3663 222.05 28.4231 222.164 28.4231C222.448 28.4799 222.732 28.5366 223.015 28.5366C223.469 28.5934 223.924 28.6502 224.435 28.7637C224.662 28.7637 224.889 28.8205 225.116 28.8205C225.172 28.8205 225.059 28.7637 225.059 28.7637C225.002 28.7069 224.945 28.7069 224.945 28.7069C224.832 28.6502 224.775 28.6502 224.662 28.6502C224.434 28.5934 224.151 28.5366 223.924 28.5366C223.469 28.4231 223.072 28.3663 222.675 28.3096C221.426 28.0825 220.12 27.8554 218.871 27.6284C215.409 27.1175 211.946 26.5498 208.483 26.1525C205.191 25.6983 201.842 25.301 198.549 24.9604C197.471 24.8469 196.392 24.7333 195.257 24.6198C194.973 24.563 194.632 24.563 194.349 24.5063C194.235 24.5063 194.178 24.5063 194.065 24.4495H194.008C193.724 24.336 193.384 24.336 193.1 24.2224C193.157 24.2224 193.157 24.2224 193.157 24.2224C193.213 24.2224 193.213 24.2224 193.213 24.2224C193.327 24.2224 193.497 24.2792 193.667 24.2792C194.405 24.3927 195.143 24.4495 195.881 24.5063C200.139 24.9604 204.396 25.4145 208.654 25.9254C210.3 26.1525 212.003 26.3228 213.649 26.4931C214.046 26.5498 214.444 26.6066 214.841 26.6066L214.784 26.4931C214.557 26.4363 214.387 26.3795 214.16 26.3795C213.819 26.3228 213.422 26.266 213.025 26.1525C211.833 25.9254 210.64 25.7551 209.505 25.5848C206.042 25.1307 202.58 24.6766 199.117 24.336C195.37 23.9386 191.624 23.5412 187.877 23.2574C185.266 23.0303 182.655 22.86 179.987 22.633C169.428 21.895 158.927 21.668 148.368 21.5544C144.906 21.4977 141.5 21.4977 138.037 21.6112C134.518 21.668 131.055 21.8383 127.535 21.895C126.741 21.9518 126.059 21.9518 125.321 22.0086V22.0653C126.514 22.0086 127.762 21.9518 128.954 21.9518C133.836 21.7815 138.775 21.668 143.657 21.668C145.53 21.668 147.347 21.668 149.22 21.7247C149.844 21.7247 150.525 21.7815 151.15 21.7815C151.604 21.7815 152.001 21.8383 152.399 21.8383C152.456 21.8383 152.456 21.8383 152.456 21.8383C152.399 21.8383 152.399 21.8383 152.399 21.8383C152.342 21.8383 152.285 21.8383 152.285 21.8383C151.888 21.8383 151.49 21.8383 151.15 21.8383C149.617 21.8383 148.085 21.8383 146.552 21.8383C141.556 21.895 136.561 21.9518 131.566 22.1221C129.465 22.1789 127.365 22.2356 125.321 22.3492V23.4845L132.531 23.1439C147.687 22.8033 136.391 23.2006 125.321 23.598V24.2224C131.339 23.9954 137.413 23.9386 143.43 23.9954C144.565 24.0521 145.7 24.1089 146.892 24.1089ZM125.265 22.1789C122.767 22.2924 120.269 22.4059 117.828 22.5195C115.898 22.633 113.968 22.7465 112.038 22.8601C111.868 22.8601 111.698 22.9168 111.527 22.9168V22.9736C112.776 22.9168 113.968 22.86 115.217 22.7465C118.566 22.5195 121.972 22.4059 125.321 22.2356V22.1789H125.265ZM125.265 22.4059V23.5412L111.471 24.1657V23.5412C111.698 23.5412 111.868 23.4845 112.095 23.4845C112.152 23.4277 112.209 23.4277 112.209 23.4277H112.152C112.095 23.4277 112.038 23.4277 111.982 23.4277C111.868 23.4277 111.754 23.4277 111.641 23.4277C111.584 23.4845 111.527 23.4845 111.414 23.4845V23.1439C112.833 23.0303 114.252 22.9168 115.671 22.8601C118.907 22.6898 122.029 22.5195 125.265 22.4059ZM111.471 24.9604C114.082 24.7901 116.693 24.6766 119.361 24.5063C121.348 24.3927 123.278 24.336 125.265 24.2792V23.6548C119.985 23.8818 114.763 24.0521 112.492 24.1657C112.265 24.2224 112.038 24.2224 111.868 24.2224C111.754 24.2224 111.584 24.2792 111.527 24.2792V24.9604H111.471ZM111.471 22.8601C111.017 22.9168 110.619 22.9168 110.222 22.9736V23.0303C110.449 23.0303 110.619 23.0303 110.846 22.9736C111.073 22.9736 111.244 22.9736 111.471 22.9168V22.8601ZM111.471 23.1439C111.017 23.2006 110.619 23.2006 110.222 23.2574V23.598C110.279 23.598 110.335 23.598 110.392 23.598C110.733 23.5412 111.073 23.5412 111.471 23.5412V23.1439ZM110.222 25.0739V24.2224V23.6548C110.619 23.598 111.017 23.598 111.414 23.5412C111.414 23.5412 111.414 23.5412 111.471 23.5412V24.1657L110.676 24.2224C110.733 24.2224 110.789 24.2224 110.903 24.2224C110.96 24.2224 111.017 24.2224 111.13 24.2224C111.244 24.2792 111.357 24.2792 111.471 24.2792C111.471 24.2792 111.471 24.2792 111.527 24.2792V24.9604C111.017 24.9604 110.619 25.0171 110.222 25.0739ZM110.222 22.9736C110.165 22.9736 110.165 22.9736 110.108 22.9736C109.881 22.9736 109.768 23.0303 109.541 23.0303C109.484 23.0303 109.427 23.0303 109.427 23.0871C109.37 23.0871 109.37 23.0871 109.37 23.0871C109.314 23.0871 109.427 23.0871 109.427 23.0871C109.541 23.0871 109.654 23.0871 109.711 23.0871C109.881 23.0303 110.051 23.0303 110.222 22.9736ZM110.222 23.2574C110.165 23.2574 110.108 23.2574 110.051 23.2574C109.143 23.3142 108.235 23.3709 107.27 23.4845C106.929 23.5412 106.475 23.5412 106.135 23.598C105.851 23.6548 105.51 23.6548 105.226 23.6548C104.716 23.7115 104.261 23.7115 103.75 23.7115C103.58 23.7115 103.41 23.7115 103.24 23.7683C102.956 23.7683 102.672 23.8251 102.388 23.8251C101.934 23.8251 101.537 23.8818 101.139 23.8818V24.336C102.502 24.2224 103.864 24.1089 105.226 23.9954C106.873 23.8818 108.519 23.7115 110.222 23.6548V23.2574ZM101.139 25.6983V25.0171C101.423 24.9604 101.707 24.9604 101.991 24.9604C103.467 24.8469 104.943 24.6766 106.418 24.563C106.532 24.563 106.646 24.563 106.759 24.5063H106.816C106.759 24.5063 106.759 24.5063 106.759 24.5063C106.702 24.5063 106.702 24.5063 106.646 24.5063C106.532 24.5063 106.362 24.5063 106.248 24.563C104.545 24.6766 102.785 24.7901 101.082 24.9036V24.4495C101.139 24.4495 101.139 24.4495 101.196 24.4495C103.75 24.2224 106.248 23.9954 108.746 23.8251C109.2 23.7683 109.654 23.7683 110.165 23.7115V24.2792V25.1307C107.213 25.2442 104.148 25.4713 101.139 25.6983ZM101.139 23.8251C100.685 23.8818 100.231 23.8818 99.7201 23.9386C96.8818 24.1657 94.1003 24.3927 91.262 24.7333C90.1267 24.8469 88.9914 24.9604 87.8561 25.0739V26.0957C90.8647 25.8119 93.8732 25.4713 96.8818 25.2442C98.301 25.1307 99.6633 25.0171 101.139 24.9036V24.4495C100.061 24.563 98.9254 24.6766 97.7901 24.7333C97.336 24.7901 96.9386 24.7901 96.4845 24.8469C96.2006 24.8469 95.86 24.9036 95.5762 24.9036C95.5195 24.9036 95.4627 24.9604 95.3492 24.9036C95.2924 24.8469 95.4059 24.8469 95.4059 24.8469C95.4627 24.8469 95.5194 24.7901 95.5194 24.7901H95.5762C95.633 24.7901 95.6897 24.7333 95.8033 24.7333C96.0871 24.7333 96.4277 24.6766 96.7115 24.6766C97.7901 24.563 98.8119 24.5063 99.8336 24.3927C100.288 24.336 100.685 24.336 101.139 24.2792V23.8251ZM87.9128 26.8337V26.1525C88.9914 26.0389 90.1267 25.9254 91.262 25.8119C92.227 25.6983 93.1921 25.5848 94.1571 25.528C95.0086 25.4145 95.86 25.3577 96.7115 25.301C97.563 25.2442 98.3577 25.1874 99.266 25.1307C99.8904 25.0739 100.572 25.0171 101.253 24.9604V25.6416C98.3577 25.8686 95.4627 26.0957 92.6244 26.3795C90.9782 26.5498 89.4455 26.7201 87.9128 26.8337ZM87.9128 25.0739C80.8739 25.8686 73.8917 26.7201 66.9095 27.7987C53.7966 29.7855 40.7973 32.2264 27.9114 35.3485C23.8811 36.3135 19.8507 37.3353 15.8771 38.4139C14.8553 38.6977 13.7767 39.0383 12.755 39.3221C11.9035 39.5492 11.1088 39.7762 10.314 40.0601C9.85991 40.1736 9.40578 40.3439 8.89489 40.5142L8.95166 40.571C9.00842 40.571 9.06519 40.571 9.06519 40.5142C9.17872 40.5142 9.29225 40.4574 9.34902 40.4574C9.68961 40.3439 10.0302 40.2304 10.3708 40.1736C11.5061 39.833 12.6982 39.5492 13.8335 39.2086C17.1827 38.3571 20.5886 37.4489 23.9946 36.6541L28.8764 35.5756C23.8811 36.7677 18.9424 38.0165 14.0038 39.3789C11.7332 40.0033 9.46255 40.6277 7.24869 41.3089C6.90809 41.4225 6.51073 41.536 6.17014 41.6495C5.82954 41.7631 5.54571 41.8198 5.26188 41.9333C5.03482 41.9901 4.80776 42.0469 4.63746 42.1604C4.52393 42.2172 4.35363 42.2739 4.2401 42.3875C4.18333 42.4442 4.35363 42.3875 4.35363 42.3875C4.46716 42.3307 4.58069 42.3307 4.75099 42.2739C5.26188 42.1604 5.77278 41.9901 6.28367 41.8198C7.75958 41.3657 9.23549 40.9683 10.7682 40.5142C11.8467 40.2304 12.8685 39.8898 13.947 39.6627C14.0038 39.606 14.0606 39.6059 14.0606 39.6059L14.1173 39.5492V39.6059H14.0606C14.0038 39.6059 13.947 39.6627 13.8903 39.6627C13.3226 39.833 12.755 40.0033 12.1305 40.1736C11.7899 40.2871 11.3358 40.4007 10.9952 40.5142C10.9385 40.571 10.8249 40.6277 10.7114 40.6277C10.6546 40.6277 10.5979 40.6845 10.5979 40.6845C10.5411 40.7413 10.7114 40.6845 10.7114 40.6845C10.9385 40.6277 11.052 40.571 11.2791 40.571C12.4144 40.2871 13.5497 39.9465 14.7418 39.6627C31.0335 35.5188 47.3821 32.1696 63.9577 29.5584L80.4765 27.4581C67.6475 29.1043 54.8752 31.1479 42.0461 33.5888C37.6751 34.4403 33.3609 35.3485 28.99 36.3703C26.2652 36.9947 23.5972 37.6191 20.986 38.3003C20.0777 38.5274 19.1695 38.7545 18.2612 38.9815C17.9774 39.0383 17.7504 39.0951 17.4665 39.2086C17.353 39.2086 17.2962 39.2654 17.2395 39.2654C17.1827 39.2654 17.1827 39.2654 17.1259 39.2654C17.1259 39.3221 17.0692 39.3221 17.0692 39.3221H17.0124C17.0692 39.3221 17.0692 39.3221 17.0692 39.3221C17.1259 39.2654 17.1827 39.2654 17.2962 39.2654C17.5801 39.2086 17.9206 39.1518 18.2045 39.0383C19.4533 38.7545 20.6454 38.4139 21.8375 38.13C25.7543 37.2218 29.6712 36.3135 33.5312 35.4053C40.2296 33.9861 46.8712 32.6805 53.5695 31.5452C64.9227 29.5584 76.3326 28.0825 87.7425 26.9472V26.266C81.4415 26.9472 75.3108 27.7419 69.0666 28.5366C67.5907 28.7637 71.4508 28.196 72.7564 28.0257C73.4943 27.9122 74.1755 27.7987 74.9135 27.7419C75.1405 27.6851 75.4244 27.6851 75.6514 27.6284C75.765 27.6284 75.8217 27.6284 75.8785 27.5716C75.9353 27.5716 75.992 27.5716 75.992 27.5716C79.8521 27.0607 83.8257 26.6066 87.7425 26.1525V25.0739H87.9128Z" fill="#FFF100"/>
<path d="M215.126 27.6284C215.012 27.5716 214.842 27.5716 214.729 27.5716C218.078 27.969 221.37 28.5934 224.663 29.1043C225.173 29.2178 225.741 29.3313 226.252 29.3881C226.422 29.4449 226.593 29.4449 226.763 29.5016C226.82 29.5016 226.876 29.5584 226.99 29.5584C227.047 29.5584 227.103 29.6152 227.103 29.6152C227.16 29.6152 227.16 29.6152 227.217 29.6152C227.274 29.6719 227.274 29.6719 227.274 29.6719C227.16 29.7287 227.047 29.6719 226.99 29.6152C226.479 29.5584 225.911 29.5016 225.4 29.3881C224.776 29.2746 224.095 29.161 223.47 29.1043C221.711 28.8204 219.951 28.4798 218.191 28.2528C217.737 28.196 217.34 28.1393 216.942 28.0257C216.602 27.969 216.261 27.9122 215.921 27.8554C215.807 27.8554 215.637 27.7987 215.58 27.7987C215.466 27.7987 215.41 27.7419 215.296 27.7419C215.183 27.7419 215.012 27.6284 215.126 27.6284Z" fill="#FFF100"/>
<path d="M204.964 26.4363C205.646 26.4931 206.384 26.5499 207.122 26.6634C207.349 26.6634 207.576 26.7202 207.746 26.7202C207.803 26.7202 207.86 26.7202 207.973 26.7769C208.03 26.7769 208.087 26.7769 208.087 26.7769C208.143 26.8337 208.143 26.8337 208.2 26.8337C207.973 26.8337 207.86 26.8337 207.632 26.7769C207.008 26.7202 206.44 26.6634 205.816 26.6066C205.702 26.6066 205.532 26.5499 205.419 26.5499C205.362 26.4931 205.305 26.4931 205.248 26.4931C205.192 26.4931 205.135 26.4363 205.078 26.4363C205.078 26.4931 205.021 26.4931 204.964 26.4363C204.908 26.4363 204.908 26.4363 204.964 26.4363Z" fill="#FFF100"/>
<path d="M122.766 22.86C127.308 22.6897 131.849 22.5762 136.39 22.4626C143.259 22.3491 150.184 22.2923 157.053 22.4626L160.686 22.6329C155.407 22.5194 150.014 22.4059 144.735 22.4626C137.242 22.5194 129.748 22.7465 122.255 23.0303C121.744 23.0303 121.177 23.0871 120.609 23.0871C120.496 23.0871 120.325 23.0871 120.155 23.0871C120.098 23.0871 119.985 23.0871 119.871 23.0871H119.814L119.871 23.0303C119.985 23.0303 120.155 22.9735 120.325 22.9735C121.177 22.9735 121.972 22.9168 122.766 22.86ZM160.686 22.6329L179.589 23.4844C173.288 23.0871 166.987 22.8032 160.686 22.6329Z" fill="#FFF100"/>
<path d="M82.2377 26.0958C75.3691 26.9473 68.4436 27.8555 61.575 28.9341C54.536 30.0126 47.4971 31.2615 40.5149 32.6806C39.6066 32.9077 38.5848 33.078 37.6766 33.305C37.0522 33.4186 36.4277 33.5889 35.8033 33.7592C35.6898 33.8159 35.5763 33.8159 35.4627 33.8727C35.4627 33.8727 35.406 33.9295 35.4627 33.9295C35.5195 33.9295 35.5195 33.8727 35.5763 33.8727C35.8033 33.8159 35.9736 33.8159 36.2007 33.7592C36.598 33.6456 36.9954 33.5321 37.4495 33.4753C41.9908 32.5103 46.5321 31.6588 51.1301 30.8641C57.8284 29.672 64.47 28.6502 71.2252 27.742C75.9935 27.0608 80.7618 26.4364 85.5301 25.9255C84.3948 25.9255 83.3163 25.9822 82.2377 26.0958Z" fill="#FFF100"/>
<path d="M147.288 27.4011C147.402 27.4579 147.515 27.4579 147.572 27.4579C147.913 27.4579 148.253 27.5146 148.594 27.5146C148.878 27.5714 149.218 27.5714 149.502 27.5714C149.843 27.5714 150.183 27.5714 150.581 27.5714C151.035 27.5714 151.489 27.5714 151.943 27.5714C153.362 27.5146 154.838 27.5146 156.257 27.5146C157.904 27.4579 159.493 27.5146 161.139 27.5714C162.558 27.6282 164.034 27.6849 165.397 27.7985C166.816 27.8552 168.292 27.9688 169.711 28.0823C171.357 28.1958 173.003 28.2526 174.706 28.3094C176.863 28.4229 178.964 28.5364 181.121 28.65C182.824 28.7635 184.47 28.8202 186.173 28.9338C187.876 28.9905 189.636 29.0473 191.339 29.1041C191.906 29.1041 192.474 29.1608 193.042 29.1041C193.098 29.1041 193.723 29.1041 193.723 29.0473C193.723 28.9338 193.042 28.8202 192.928 28.8202C192.077 28.7067 191.282 28.5932 190.43 28.4797C189.806 28.4229 189.181 28.3661 188.557 28.3094C187.762 28.2526 186.911 28.1958 186.116 28.1391C184.583 28.0255 183.108 27.9688 181.518 27.8552C181.461 27.8552 181.405 27.8552 181.348 27.8552C181.291 27.8552 181.234 27.8552 181.178 27.7985C181.121 27.7985 181.121 27.7985 181.064 27.7985H181.007L180.95 27.7417C181.064 27.6849 181.234 27.6849 181.348 27.6282C181.405 27.5714 181.291 27.5714 181.291 27.5714C181.234 27.5146 181.178 27.5146 181.064 27.5146C180.95 27.5146 180.837 27.4579 180.723 27.4579C180.496 27.4579 180.383 27.4011 180.156 27.4011C179.929 27.3443 179.645 27.3443 179.361 27.3443C178.566 27.2876 177.828 27.2876 177.09 27.2308C174.139 27.174 171.244 27.0037 168.292 26.947C164.034 26.7767 159.777 26.6631 155.519 26.6064C151.319 26.4929 147.118 26.4929 142.917 26.4361C141.271 26.3793 139.625 26.3793 138.036 26.3793C136.9 26.3226 135.822 26.3226 134.686 26.3226C134.573 26.3226 134.459 26.3226 134.346 26.3226C134.175 26.3226 134.005 26.3226 133.778 26.3226C133.267 26.3226 132.756 26.3226 132.245 26.3793C131.053 26.3793 129.861 26.4361 128.669 26.4361C128.215 26.4361 127.761 26.4929 127.307 26.4929C127.193 26.4929 127.08 26.4929 126.966 26.4929C126.909 26.4929 126.909 26.4929 126.853 26.4929C126.796 26.4929 126.796 26.4929 126.796 26.4929L126.853 26.4361C126.909 26.4361 126.909 26.4361 126.966 26.4361C127.137 26.4361 127.25 26.3793 127.42 26.3793C128.158 26.3226 128.839 26.2658 129.577 26.2658C134.913 26.0387 140.306 25.9252 145.642 25.982C148.48 26.0387 151.375 26.0387 154.157 26.1523C156.314 26.2658 158.528 26.3793 160.685 26.4929C161.026 26.4929 161.48 26.5496 161.82 26.5496C162.275 26.5496 162.729 26.6064 163.183 26.6064C164.318 26.6631 165.51 26.6631 166.645 26.7199C169.541 26.7767 172.436 26.8334 175.387 27.0037C178.566 27.1173 181.802 27.2876 184.981 27.5146C186.457 27.6282 187.989 27.7985 189.522 27.912C190.884 28.0255 192.247 28.1958 193.609 28.4229C193.95 28.4797 194.29 28.4797 194.631 28.5364C194.972 28.5932 195.426 28.65 195.823 28.65C196.675 28.7635 197.583 28.8202 198.434 28.877C200.081 28.9905 201.783 29.1608 203.486 29.2176C203.997 29.2744 204.565 29.2744 205.133 29.3311C205.246 29.3311 205.416 29.3311 205.587 29.3311C205.587 29.3311 205.7 29.3311 205.7 29.2744C205.644 29.2744 205.644 29.2176 205.587 29.2176C205.53 29.2176 205.473 29.2176 205.416 29.1608C205.303 29.1608 205.189 29.1041 205.133 29.1041C205.019 29.0473 204.849 29.0473 204.735 29.0473C203.827 28.9338 202.805 28.8202 201.897 28.7067C200.251 28.5932 198.661 28.4229 197.015 28.2526C196.788 28.1958 196.561 28.1958 196.391 28.1391C196.22 28.1391 196.107 28.0823 195.937 28.0823C195.823 28.0823 195.596 28.0255 195.482 27.9688C195.199 27.8552 195.199 27.6282 194.688 27.4579C194.574 27.4011 194.404 27.4011 194.234 27.3443C194.234 27.3443 194.177 27.3443 194.234 27.2876H194.29C194.347 27.2876 194.347 27.2876 194.347 27.2876C194.347 27.2876 194.404 27.3443 194.461 27.3443C194.517 27.3443 194.574 27.3443 194.574 27.3443C194.688 27.3443 194.801 27.4011 194.915 27.4011C195.255 27.4579 195.596 27.5146 195.937 27.5714C196.958 27.6849 198.037 27.8552 199.115 28.0255C200.591 28.2526 202.124 28.3661 203.6 28.5364C205.416 28.7635 207.29 28.9338 209.163 29.0473C210.242 29.1041 211.32 29.1608 212.342 29.2176C213.477 29.2744 214.556 29.3311 215.691 29.5014C216.543 29.615 217.337 29.7285 218.132 29.842C219.267 30.0123 220.403 30.1826 221.538 30.4665C221.652 30.5232 221.822 30.5232 221.935 30.5232C222.049 30.58 222.219 30.58 222.389 30.58C222.673 30.6368 222.9 30.6368 223.184 30.6935C223.638 30.7503 224.092 30.807 224.603 30.8638C224.83 30.8638 225.114 30.9206 225.285 30.807C225.341 30.807 225.228 30.7503 225.228 30.7503C225.171 30.7503 225.114 30.6935 225.057 30.6935C225.001 30.6368 224.887 30.6368 224.83 30.6368C224.547 30.58 224.319 30.5232 224.036 30.5232C223.638 30.4665 223.184 30.3529 222.787 30.2962C221.538 30.0691 220.232 29.842 219.04 29.6717C215.578 29.1041 212.115 28.6499 208.709 28.1958C205.416 27.7417 202.067 27.4011 198.775 27.0605C197.696 26.947 196.618 26.8334 195.539 26.7199C195.255 26.6631 194.915 26.6631 194.631 26.6064C194.517 26.6064 194.461 26.6064 194.347 26.6064L194.29 26.5496C194.007 26.3793 193.666 26.3226 193.382 26.2658H193.439C193.439 26.2658 193.439 26.2658 193.496 26.2658H193.552C193.666 26.3226 193.836 26.3226 194.007 26.3226C194.745 26.3793 195.482 26.4361 196.22 26.5496C200.478 27.0037 204.679 27.4011 208.936 27.7985C210.582 27.9688 212.285 28.1391 213.931 28.2526C214.329 28.3094 214.726 28.3094 215.123 28.3094L215.067 28.1391C214.84 28.0255 214.613 28.0255 214.442 27.9688C214.102 27.8552 213.648 27.7985 213.307 27.7417C212.115 27.5146 210.98 27.3443 209.787 27.174C206.325 26.6631 202.919 26.2658 199.456 25.9252C195.71 25.5846 191.963 25.244 188.216 24.9602C185.605 24.7331 182.994 24.5628 180.326 24.3358C169.824 23.4843 159.323 23.3707 148.821 23.1437C145.358 23.0869 141.896 23.0869 138.49 23.2004C134.97 23.314 131.507 23.4275 127.988 23.541C127.193 23.5978 126.399 23.5978 125.604 23.6546V23.7681C126.853 23.7113 128.158 23.7113 129.464 23.6546C134.346 23.541 139.284 23.4275 144.166 23.4275C146.04 23.4275 147.856 23.4843 149.729 23.4843C150.354 23.4843 150.978 23.541 151.659 23.541C152.057 23.541 152.454 23.5978 152.908 23.5978H152.965C152.908 23.5978 152.908 23.5978 152.908 23.5978C152.851 23.5978 152.795 23.5978 152.795 23.5978C152.454 23.6546 152.057 23.6546 151.716 23.6546C150.183 23.6546 148.651 23.6546 147.118 23.6546C142.123 23.7113 137.127 23.7681 132.132 23.8816C129.975 23.9384 127.874 23.9952 125.717 24.1087V26.0387L133.097 25.7549C148.31 25.4711 136.843 25.8117 125.717 26.209V27.4579C131.791 27.2876 137.865 27.2308 143.939 27.4011C144.961 27.3443 146.096 27.4011 147.288 27.4011ZM125.547 23.5978C123.106 23.6546 120.722 23.7681 118.281 23.8816C116.351 23.9952 114.421 24.1087 112.491 24.2222C112.264 24.2222 112.037 24.279 111.81 24.279V24.3925C113.059 24.3358 114.364 24.279 115.613 24.1655C118.962 23.9952 122.255 23.8249 125.547 23.7113V23.5978ZM125.547 24.0519V25.982L111.81 26.6064V25.5846C111.867 25.5846 111.867 25.5846 111.867 25.5278C112.094 25.5278 112.321 25.4711 112.548 25.4711C112.604 25.4711 112.661 25.4711 112.661 25.4711V25.4143C112.604 25.4143 112.548 25.4143 112.491 25.4143C112.377 25.4143 112.264 25.4143 112.15 25.4143C112.037 25.4143 111.923 25.4711 111.81 25.4711V24.8466C113.229 24.7331 114.705 24.6196 116.181 24.5628C119.303 24.3358 122.425 24.1655 125.547 24.0519ZM111.81 27.9688C114.478 27.8552 117.146 27.6849 119.814 27.5714C121.687 27.5146 123.674 27.4579 125.547 27.3443V26.0955C120.325 26.3226 115.216 26.4929 112.888 26.6064C112.661 26.6064 112.491 26.6631 112.264 26.6631C112.15 26.6631 111.98 26.6631 111.867 26.6631C111.81 26.6631 111.81 26.6631 111.81 26.6631V27.9688ZM111.81 24.279C111.526 24.3358 111.185 24.3358 110.902 24.3358V24.4493C111.015 24.4493 111.185 24.4493 111.356 24.4493C111.526 24.4493 111.696 24.3925 111.867 24.3925V24.279H111.81ZM111.81 24.7899C111.526 24.8466 111.185 24.8466 110.902 24.8466V25.4711C111.185 25.4711 111.526 25.4143 111.81 25.4143V24.7899ZM110.845 28.0255C111.129 27.9688 111.469 27.9688 111.753 27.9688V26.7199C111.639 26.7199 111.526 26.7199 111.469 26.6631C111.356 26.6064 111.299 26.6064 111.242 26.6064C111.185 26.6064 111.072 26.6064 111.015 26.6064C110.958 26.6064 110.902 26.6064 110.845 26.6064L111.753 26.5496V25.5278C111.469 25.5846 111.129 25.5846 110.845 25.5846V26.6064V28.0255ZM110.845 24.3358C110.788 24.3358 110.788 24.3358 110.731 24.3358V24.4493C110.788 24.4493 110.845 24.3925 110.845 24.3925V24.3358ZM110.845 24.8466C110.788 24.8466 110.788 24.8466 110.731 24.8466V25.4711C110.788 25.4143 110.845 25.4143 110.845 25.4143V24.8466ZM110.731 28.0255C110.788 28.0255 110.845 28.0255 110.845 28.0255V26.6064V25.5846C110.788 25.6414 110.788 25.6414 110.731 25.6414V26.6064V28.0255ZM110.731 24.3358L110.674 24.4493C110.674 24.4493 110.674 24.4493 110.731 24.4493V24.3358ZM110.731 24.8466L110.674 25.4711C110.674 25.4711 110.674 25.4711 110.731 25.4711V24.8466ZM110.731 28.0255L110.788 26.6064V25.6414C110.731 25.6414 110.731 25.6414 110.731 25.6414V26.6064V28.0255ZM110.731 24.3358L110.674 24.4493H110.731V24.3358ZM110.731 24.8466L110.674 25.4711H110.731V24.8466ZM110.674 28.0255L110.731 26.6064V25.6414H110.674V26.6064V28.0255ZM110.674 28.0255V26.6064V25.6414V26.6631V28.0255ZM110.674 24.3358C110.618 24.3358 110.618 24.3358 110.561 24.3358C110.391 24.3358 110.22 24.3925 110.05 24.3925C109.993 24.3925 109.936 24.4493 109.936 24.4493H109.88C109.823 24.506 109.936 24.506 109.936 24.506C110.05 24.506 110.164 24.506 110.22 24.506C110.447 24.506 110.561 24.506 110.731 24.506V24.3358H110.674ZM110.674 24.9034C110.618 24.9034 110.561 24.9034 110.561 24.9034C109.653 24.9602 108.688 25.0169 107.779 25.1305C107.439 25.1872 107.041 25.1872 106.644 25.244C106.36 25.3008 106.02 25.3008 105.736 25.3008C105.282 25.3008 104.771 25.3008 104.26 25.3575C104.09 25.3575 103.919 25.3575 103.749 25.3575C103.465 25.3575 103.125 25.4143 102.898 25.4143C101.989 25.4711 101.081 25.5278 100.23 25.6414C97.3913 25.8684 94.553 26.0955 91.7147 26.3793C90.5794 26.4929 89.4441 26.6064 88.252 26.7199V28.4797C91.2606 28.1958 94.3259 27.912 97.3345 27.6282C100.457 27.4011 103.635 27.174 106.758 27.0037C106.871 27.0037 107.041 27.0037 107.212 27.0037C107.269 27.0037 107.269 27.0037 107.325 27.0037C107.382 27.0037 107.382 27.0037 107.382 27.0037C107.325 27.0037 107.325 27.0037 107.325 27.0605C107.212 27.0605 107.098 27.0605 106.985 27.1173C105.509 27.2308 104.033 27.3443 102.5 27.4579C101.592 27.5714 100.57 27.6282 99.6051 27.6849C98.7536 27.7417 97.9589 27.7985 97.1074 27.8552C96.256 27.912 95.4045 27.9688 94.553 28.0255C93.588 28.0823 92.5662 28.1958 91.6012 28.3094C90.5226 28.4229 89.3873 28.5364 88.252 28.65V29.842C89.8414 29.7285 91.3741 29.5582 92.9635 29.4447C98.8672 28.9338 104.771 28.5364 110.674 28.1958V26.7767V25.7549C110.22 25.8117 109.766 25.8117 109.255 25.8684C106.758 26.0955 104.203 26.3226 101.705 26.4929C100.57 26.6064 99.3781 26.7199 98.2428 26.7767C97.7886 26.8334 97.3913 26.8334 96.9371 26.8902C96.6533 26.8902 96.3127 26.947 96.0289 26.8902C95.9721 26.8902 95.8586 26.947 95.8018 26.8334C95.7451 26.8334 95.8018 26.7767 95.8586 26.7767C95.9154 26.7199 95.9154 26.7199 95.9721 26.7199C95.9721 26.7199 95.9721 26.7199 96.0289 26.6631C96.0856 26.6631 96.1424 26.6631 96.256 26.6631C96.5398 26.6631 96.8804 26.6064 97.1642 26.6064C98.2427 26.5496 99.2645 26.4361 100.286 26.3793C102.103 26.209 103.863 26.0955 105.679 25.9252C107.325 25.8117 108.971 25.6981 110.674 25.5846V24.9034ZM88.252 26.6064C81.213 27.3443 74.1741 28.1958 67.1919 29.2176C54.0222 31.2044 40.9093 33.6453 27.91 36.7675C23.8228 37.7325 19.7925 38.6975 15.7053 39.776C14.6268 40.0599 13.5482 40.4005 12.5264 40.6843C11.675 40.9114 10.8802 41.1952 10.0288 41.479C9.57463 41.6493 9.06374 41.7628 8.60961 41.9899L8.66638 42.1602C8.72314 42.1602 8.77991 42.1034 8.77991 42.1034C8.89344 42.0467 9.00697 42.0467 9.06374 42.0467C9.40433 41.9331 9.74493 41.8196 10.0855 41.7628C11.2208 41.4222 12.4129 41.1384 13.5482 40.8546C17.0109 39.9463 20.4737 39.0948 23.9364 38.3001L32.2242 36.5404C26.0367 37.9028 19.906 39.3787 13.7753 41.0817C11.5047 41.7061 9.17727 42.3305 6.9634 43.0117C6.62281 43.1252 6.22545 43.2388 5.88485 43.3523C5.60103 43.409 5.26043 43.5226 5.03337 43.6361C4.80631 43.6929 4.57924 43.8064 4.40895 43.9199C4.29541 43.9199 4.12512 44.0335 4.01158 44.147C3.95482 44.2038 4.12512 44.147 4.12512 44.147C4.23865 44.0902 4.40895 44.0902 4.52248 44.0335C5.03337 43.9199 5.60103 43.7496 6.11192 43.6361C7.58783 43.182 9.1205 42.7846 10.5964 42.3873C11.675 42.1034 12.7535 41.7628 13.7753 41.479C13.8321 41.479 13.8888 41.479 13.8888 41.4222C13.9456 41.4222 13.9456 41.4222 13.9456 41.4222H14.0024C13.9456 41.4222 13.9456 41.4222 13.9456 41.4222C13.9456 41.479 13.8888 41.479 13.8888 41.479C13.8321 41.479 13.7753 41.5358 13.7185 41.5358C13.2076 41.7628 12.64 41.8764 12.0723 42.0467C11.675 42.1602 11.2776 42.2737 10.8802 42.3873C10.7667 42.444 10.6532 42.444 10.5964 42.5008C10.5396 42.5008 10.4829 42.5576 10.4829 42.5576C10.4261 42.6143 10.5964 42.5576 10.5964 42.5576C10.8235 42.5008 10.9938 42.444 11.1641 42.444C12.3562 42.1602 13.4915 41.9331 14.6268 41.5925C31.0889 37.6189 47.6077 34.3265 64.2968 31.8288L80.8724 29.8988C67.9866 31.4882 55.1575 33.5886 42.2717 35.8024C37.844 36.5972 33.473 37.5054 29.1021 38.4137C26.3773 39.0381 23.7093 39.6625 21.0413 40.2869C20.1331 40.514 19.2248 40.7411 18.3166 40.9681C18.0327 41.0249 17.7489 41.0816 17.4651 41.1952C17.4083 41.1952 17.2948 41.2519 17.238 41.2519C17.1812 41.2519 17.1812 41.2519 17.1245 41.3087H17.0677C17.0677 41.3087 17.0677 41.3087 17.1245 41.3087C17.1812 41.3087 17.238 41.2519 17.3515 41.2519C17.6921 41.1952 17.976 41.0816 18.3166 41.0249C19.5654 40.7411 20.7575 40.4572 22.0063 40.1734C25.9232 39.2651 29.8968 38.3569 33.8136 37.5622C40.512 36.1998 47.2671 35.0077 54.0222 33.8724C65.4889 31.9424 76.8988 30.58 88.3087 29.5582V28.3661C82.0645 29.0473 75.8203 29.842 69.576 30.5232C68.1569 30.6935 71.9602 30.1826 73.2658 30.0123C73.947 29.8988 74.685 29.7853 75.4229 29.7285C75.65 29.6717 75.9338 29.6717 76.1609 29.615C76.2176 29.615 76.3312 29.5582 76.3879 29.5582C76.4447 29.5582 76.5015 29.5582 76.5015 29.5582C80.3615 29.0473 84.3351 28.5932 88.252 28.1958V26.6064Z" fill="#F48120"/>
<path d="M215.352 29.8988C215.239 29.842 215.068 29.842 215.012 29.842C218.304 30.1259 221.597 30.8071 224.946 31.2612C225.457 31.318 226.024 31.3747 226.535 31.4882C226.705 31.545 226.876 31.545 227.046 31.545C227.103 31.6018 227.16 31.6018 227.216 31.6018C227.273 31.6585 227.33 31.6585 227.33 31.6585C227.387 31.6585 227.387 31.7153 227.443 31.7153C227.5 31.7153 227.5 31.7153 227.5 31.7153L227.557 31.7721C227.443 31.8288 227.33 31.7721 227.216 31.7721C226.705 31.7153 226.138 31.6585 225.627 31.6018C225.003 31.545 224.321 31.4882 223.697 31.3747C221.937 31.0909 220.177 30.8638 218.418 30.58C217.964 30.5232 217.566 30.4665 217.169 30.4097C216.828 30.3529 216.488 30.2962 216.147 30.2394C216.034 30.1826 215.863 30.1826 215.806 30.1826C215.693 30.1259 215.636 30.1259 215.523 30.1259C215.466 30.0123 215.239 29.8988 215.352 29.8988Z" fill="#F48120"/>
<path d="M205.246 28.8771C205.927 28.9338 206.665 28.9906 207.403 29.0474C207.63 29.1041 207.857 29.1041 208.027 29.1041C208.084 29.1041 208.141 29.1041 208.254 29.1609C208.311 29.1609 208.368 29.1609 208.425 29.1609C208.481 29.2177 208.481 29.2177 208.538 29.2177H208.595L208.538 29.2744C208.368 29.2744 208.198 29.2744 208.027 29.2744C207.403 29.2177 206.835 29.2177 206.211 29.1609C206.097 29.1609 205.927 29.1041 205.813 29.1041C205.757 29.0474 205.7 29.0474 205.643 29.0474C205.586 29.0474 205.586 28.9906 205.53 28.9906C205.473 28.9906 205.416 28.9338 205.359 28.9338C205.189 28.8771 205.189 28.8771 205.246 28.8771C205.189 28.8771 205.189 28.8771 205.246 28.8771Z" fill="#F48120"/>
<path d="M123.276 24.7901C127.817 24.6198 132.302 24.5062 136.843 24.5062C143.712 24.3927 150.637 24.3927 157.506 24.563L163.523 24.8468C157.392 24.6765 151.318 24.6198 145.188 24.6198C137.695 24.6765 130.202 24.8468 122.708 25.0739C122.141 25.1307 121.63 25.1307 121.062 25.1307C120.892 25.1307 120.778 25.1307 120.608 25.1307C120.495 25.1307 120.438 25.1307 120.324 25.1307L120.268 25.0739L120.324 25.0171C120.438 24.9604 120.608 24.9604 120.778 24.9604C121.63 24.9036 122.425 24.8468 123.276 24.7901ZM163.523 24.7901L179.985 25.5848C174.479 25.2442 168.973 24.9604 163.523 24.7901Z" fill="#F48120"/>
<path d="M82.6312 27.7985C75.7626 28.65 68.8371 29.5014 61.9117 30.5232C54.816 31.6018 47.7203 32.7371 40.6813 34.1562C39.7163 34.3265 38.7513 34.5536 37.7863 34.7807C37.1618 34.951 36.4806 35.0645 35.913 35.2348C35.7995 35.2916 35.6292 35.2916 35.5724 35.3483C35.5156 35.3483 35.5156 35.4051 35.5156 35.4051C35.5724 35.4051 35.5724 35.4051 35.6292 35.3483C35.8562 35.3483 36.0833 35.2916 36.2536 35.2348C36.7077 35.178 37.1051 35.0645 37.5024 35.0077C42.1005 34.0427 46.6985 33.248 51.2965 32.4533C58.0516 31.3747 64.75 30.2962 71.5051 29.4447C76.2734 28.7635 81.0418 28.1958 85.8669 27.6282C84.7883 27.7417 83.653 27.7417 82.6312 27.7985Z" fill="#F48120"/>
<path d="M147.343 27.9687C147.4 27.9687 147.457 27.9687 147.457 27.9687C147.797 27.9687 148.138 27.9687 148.422 28.0255C148.762 28.0255 149.046 28.0255 149.33 28.0255C149.67 28.0255 150.068 28.0255 150.408 28.0255C150.863 28.0255 151.317 28.0822 151.771 28.0822C153.19 28.0822 154.666 28.0822 156.085 28.0822C157.731 28.0822 159.377 28.139 160.967 28.1958C162.386 28.2525 163.862 28.3093 165.281 28.4228C166.7 28.4796 168.176 28.5364 169.595 28.6499C171.241 28.7634 172.944 28.877 174.591 28.9337C176.748 29.0473 178.848 29.1608 181.005 29.2743C182.708 29.3878 184.411 29.5014 186.114 29.6149C187.817 29.7284 189.577 29.842 191.28 29.9555C191.847 30.0123 192.415 30.0123 192.983 30.0123C193.04 30.0123 193.664 30.069 193.664 30.0123C193.664 29.9555 192.926 29.842 192.869 29.842C192.018 29.7284 191.166 29.6149 190.315 29.5581C189.69 29.5014 189.066 29.4446 188.498 29.3878C187.647 29.3311 186.852 29.2743 186.001 29.1608C184.468 29.0473 182.935 28.9337 181.403 28.8202C181.346 28.8202 181.289 28.8202 181.175 28.8202C181.119 28.8202 181.062 28.8202 181.062 28.8202C181.005 28.7634 181.005 28.7634 180.948 28.7634C180.892 28.7634 180.892 28.7634 180.892 28.7634L180.835 28.7067C180.948 28.6499 181.119 28.6499 181.232 28.6499C181.289 28.5931 181.175 28.5931 181.175 28.5931C181.119 28.5364 181.062 28.5364 180.948 28.5364C180.835 28.4796 180.665 28.4796 180.608 28.4796C180.381 28.4228 180.267 28.4228 180.04 28.4228C179.813 28.4228 179.529 28.3661 179.245 28.3661C178.451 28.3093 177.713 28.3093 176.918 28.2525C173.966 28.139 171.071 27.9687 168.119 27.7984C163.862 27.6281 159.604 27.5146 155.29 27.401C152.566 27.3443 149.841 27.2875 147.116 27.2875V27.9687H147.286C147.457 27.9687 147.4 27.9687 147.343 27.9687ZM147.343 27.0604V25.7548C148.705 25.7548 150.068 25.7548 151.373 25.7548C151.714 25.7548 152.111 25.7548 152.509 25.7548C152.566 25.7548 152.566 25.7548 152.622 25.7548C152.225 25.6981 151.828 25.6981 151.373 25.6981C150.749 25.6981 150.068 25.6413 149.443 25.6413C148.705 25.6413 148.024 25.5845 147.286 25.5845V25.471C147.684 25.471 148.138 25.471 148.535 25.5278C159.094 25.7548 169.595 25.9819 180.21 26.7766C182.822 27.0037 185.49 27.174 188.101 27.401C191.847 27.7416 195.594 28.0822 199.397 28.4796C202.86 28.877 206.323 29.2743 209.785 29.7852C210.977 30.0123 212.17 30.1258 213.362 30.3529C213.702 30.4096 214.1 30.4664 214.497 30.5799C214.724 30.6367 214.951 30.6935 215.121 30.6935L215.178 30.807C214.838 30.807 214.383 30.7502 213.986 30.6935C212.34 30.5232 210.637 30.2961 208.991 30.069C204.733 29.5581 200.476 29.104 196.218 28.6499C195.48 28.5931 194.742 28.4796 194.005 28.4228C193.834 28.4228 193.721 28.3661 193.55 28.3661C193.494 28.3661 193.494 28.3661 193.494 28.3661C193.494 28.3661 193.494 28.3661 193.437 28.3661C193.721 28.4228 194.061 28.4228 194.345 28.5931C194.402 28.5931 194.402 28.5931 194.402 28.5931C194.515 28.6499 194.572 28.6499 194.686 28.6499C194.97 28.7067 195.31 28.7067 195.594 28.7634C196.673 28.877 197.751 28.9905 198.886 29.104C202.236 29.4446 205.585 29.8987 208.877 30.3529C212.34 30.807 215.803 31.3179 219.265 31.8855C220.514 32.1126 221.82 32.3397 223.069 32.5667C223.466 32.6235 223.92 32.6803 224.317 32.7938C224.545 32.8506 224.828 32.8506 225.055 32.9073C225.169 32.9073 225.226 32.9641 225.339 32.9641C225.396 33.0209 225.453 33.0209 225.51 33.0209C225.51 33.0209 225.623 33.0776 225.566 33.0776C225.339 33.1344 225.055 33.0209 224.885 33.0209C224.431 32.9641 223.977 32.9073 223.466 32.8506C223.182 32.7938 222.955 32.737 222.614 32.737C222.501 32.6803 222.331 32.6803 222.217 32.6235C222.104 32.6235 221.933 32.5667 221.763 32.5667C220.628 32.3397 219.492 32.1694 218.357 31.9423C217.506 31.8288 216.711 31.6585 215.859 31.6017C214.724 31.4314 213.645 31.3179 212.51 31.2044C211.432 31.0908 210.353 30.9773 209.331 30.9205C207.458 30.6935 205.585 30.4664 203.768 30.2961C202.292 30.1258 200.76 29.9555 199.284 29.7284C198.205 29.6149 197.127 29.4446 196.048 29.3311C195.708 29.2743 195.367 29.2175 195.026 29.2175C194.913 29.2175 194.799 29.1608 194.686 29.1608C194.629 29.1608 194.572 29.1608 194.572 29.104C194.515 29.104 194.515 29.104 194.459 29.104C194.402 29.104 194.402 29.104 194.402 29.104H194.345C194.288 29.104 194.345 29.104 194.402 29.104C194.515 29.1608 194.686 29.1608 194.856 29.2175C195.197 29.3311 195.367 29.5014 195.651 29.5581C195.821 29.6149 195.991 29.6149 196.162 29.6717C196.275 29.6717 196.445 29.7284 196.616 29.7284C196.843 29.7852 197.013 29.7852 197.24 29.842C198.886 30.0123 200.533 30.1826 202.122 30.3529C203.03 30.4664 203.995 30.5799 204.96 30.6935C205.074 30.7502 205.244 30.7502 205.358 30.7502C205.471 30.7502 205.585 30.807 205.642 30.807C205.698 30.807 205.755 30.8638 205.869 30.8638C205.925 30.8638 205.925 30.8638 205.925 30.9205C205.982 30.9205 205.812 30.9205 205.812 30.9205C205.698 30.9205 205.528 30.9205 205.358 30.8638C204.847 30.807 204.279 30.7502 203.711 30.7502C202.065 30.5799 200.362 30.4096 198.659 30.2393C197.751 30.1826 196.9 30.069 196.048 29.9555C195.651 29.8987 195.253 29.8987 194.856 29.842C194.515 29.7852 194.175 29.7284 193.834 29.7284C192.472 29.5581 191.109 29.3878 189.747 29.2743C188.214 29.1608 186.682 28.9905 185.149 28.877C181.913 28.5931 178.678 28.4228 175.499 28.2525C172.547 28.0822 169.652 27.9687 166.7 27.9119C165.508 27.8552 164.373 27.8552 163.237 27.7984C162.783 27.7984 162.329 27.7416 161.875 27.7416C161.535 27.6849 161.08 27.6849 160.74 27.6849C158.526 27.5713 156.312 27.4578 154.155 27.401C151.884 27.1172 149.614 27.1172 147.343 27.0604ZM147.116 27.9119C147.173 27.9119 147.23 27.9119 147.343 27.9687V27.9119C147.286 27.9119 147.23 27.9119 147.116 27.9119H147.343V27.3443C145.867 27.2875 144.391 27.2875 142.859 27.2875C141.212 27.2875 139.566 27.2875 137.92 27.2875C136.841 27.2875 135.706 27.2875 134.628 27.2307C134.514 27.2307 134.4 27.2307 134.287 27.2307C134.117 27.2875 133.946 27.2875 133.776 27.2875C133.265 27.2875 132.754 27.2875 132.187 27.2875C130.995 27.3443 129.802 27.3443 128.61 27.401C128.156 27.401 127.759 27.401 127.305 27.4578C127.191 27.4578 127.021 27.4578 126.907 27.4578C126.851 27.4578 126.851 27.4578 126.794 27.4578H126.737C126.737 27.4578 126.794 27.4578 126.794 27.401C126.851 27.401 126.851 27.401 126.907 27.401C127.078 27.401 127.248 27.401 127.418 27.3443C128.099 27.2875 128.837 27.2875 129.575 27.2875C134.968 27.0604 140.304 27.0037 145.697 27.0604C146.321 27.0604 146.889 27.0604 147.457 27.0604V25.7548C147.23 25.7548 147.116 25.7548 146.889 25.7548C141.894 25.6981 136.898 25.8116 131.903 25.9251C129.802 25.9819 127.702 26.0387 125.602 26.0954V27.2307L132.868 26.9469C148.081 26.6631 136.728 27.0037 125.602 27.2875V27.9687C131.676 27.7984 137.693 27.7416 143.767 27.8552C144.789 27.9119 145.981 27.9119 147.116 27.9119ZM147.343 25.471V25.5845C146.208 25.5845 145.016 25.5278 143.88 25.5278C138.942 25.5278 134.06 25.5845 129.121 25.7548C127.872 25.8116 126.68 25.8684 125.431 25.8684C126.226 25.8116 126.907 25.8116 127.702 25.8116C131.222 25.6981 134.684 25.5845 138.204 25.5278C141.269 25.471 144.278 25.471 147.343 25.471ZM125.431 25.8684C122.991 25.9251 120.436 26.0387 117.995 26.1522C116.065 26.2657 114.135 26.3793 112.205 26.436C111.978 26.4928 111.864 26.4928 111.637 26.4928V26.6063C112.886 26.5496 114.078 26.4928 115.327 26.3793C118.676 26.209 122.082 26.0387 125.431 25.9251V25.8684ZM125.431 26.0954V27.2307L111.637 27.7984V27.174C111.864 27.1172 112.092 27.1172 112.262 27.1172C112.319 27.1172 112.375 27.1172 112.375 27.1172V27.0604C112.319 27.0604 112.262 27.0604 112.205 27.0604C112.092 27.1172 111.978 27.1172 111.864 27.1172C111.808 27.1172 111.694 27.1172 111.637 27.1172V26.7766C113.057 26.6631 114.476 26.5496 115.895 26.4928C119.074 26.3793 122.309 26.209 125.431 26.0954ZM111.637 28.5931C114.249 28.4228 116.917 28.3093 119.528 28.1958C121.515 28.139 123.445 28.0822 125.431 27.9687V27.2875C120.152 27.5146 114.93 27.6281 112.602 27.7984C112.375 27.7984 112.205 27.8552 111.978 27.8552C111.864 27.8552 111.751 27.8552 111.637 27.8552V28.5931ZM111.637 26.436C111.24 26.4928 110.843 26.4928 110.389 26.5496V26.6063C110.616 26.5496 110.786 26.5496 111.013 26.5496C111.24 26.4928 111.467 26.4928 111.637 26.4928V26.436ZM111.637 26.7766C111.24 26.7766 110.843 26.8334 110.389 26.8334V27.174C110.445 27.174 110.502 27.174 110.616 27.174C110.956 27.1172 111.297 27.1172 111.637 27.1172V26.7766ZM110.389 28.6499V27.8552V27.2875C110.786 27.2307 111.183 27.2307 111.581 27.174C111.637 27.174 111.637 27.174 111.637 27.174V27.7984L110.843 27.8552C110.899 27.8552 110.956 27.8552 111.013 27.8552C111.07 27.8552 111.127 27.8552 111.24 27.9119C111.354 27.9119 111.467 27.9119 111.581 27.9119C111.637 27.9119 111.637 27.9119 111.637 27.9119V28.6499C111.24 28.5931 110.843 28.6499 110.389 28.6499ZM110.389 26.5496C110.332 26.5496 110.332 26.5496 110.275 26.5496C110.105 26.5496 109.934 26.6063 109.764 26.6063C109.707 26.6063 109.651 26.6063 109.594 26.6631C109.707 26.6631 109.764 26.6631 109.878 26.6631C110.048 26.6631 110.218 26.6631 110.389 26.6631V26.5496ZM110.389 26.8334C110.332 26.8334 110.275 26.8334 110.218 26.8334C109.31 26.8902 108.402 26.9469 107.437 27.0604C107.096 27.1172 106.699 27.1172 106.301 27.174C106.018 27.174 105.677 27.2307 105.393 27.2307C104.882 27.2875 104.371 27.2875 103.917 27.2875C103.69 27.2875 103.577 27.2875 103.406 27.3443C103.123 27.3443 102.839 27.401 102.555 27.401C102.158 27.4578 101.703 27.4578 101.306 27.5146V27.9119C102.725 27.7984 104.088 27.6849 105.45 27.6281C107.096 27.5146 108.742 27.401 110.445 27.2875V26.8334H110.389ZM101.306 29.2175V28.5364C101.59 28.5364 101.93 28.4796 102.214 28.4796C103.69 28.3661 105.166 28.2525 106.642 28.139C106.756 28.0822 106.869 28.0822 106.983 28.0822H107.039V28.0255C106.983 28.0255 106.983 28.0255 106.983 28.0255C106.926 28.0255 106.926 28.0822 106.869 28.0822C106.756 28.0822 106.585 28.0822 106.472 28.0822C104.712 28.1958 103.009 28.3093 101.306 28.4228V27.9687C101.363 27.9687 101.42 27.9687 101.42 27.9687C103.974 27.7416 106.472 27.5713 108.969 27.3443C109.424 27.2875 109.878 27.2875 110.389 27.2307V27.7984V28.5931C107.38 28.8202 104.315 29.0473 101.306 29.2175ZM101.306 27.401C100.852 27.4578 100.398 27.4578 99.8869 27.5146C97.0486 27.7416 94.2671 27.9687 91.4288 28.2525C90.2367 28.3661 89.1014 28.4796 87.9661 28.5931V29.5581C90.9747 29.2743 93.9832 28.9905 97.0486 28.7634C98.4677 28.6499 99.8869 28.5364 101.306 28.4228V27.9687C100.227 28.0255 99.0922 28.139 97.9568 28.2525C97.5027 28.3093 97.1054 28.3093 96.6512 28.3093C96.3674 28.3661 96.0268 28.3661 95.743 28.3661C95.6862 28.3661 95.6294 28.3661 95.5159 28.3093C95.4592 28.3093 95.5727 28.2525 95.5727 28.2525C95.6295 28.1958 95.6862 28.1958 95.6862 28.1958L95.743 28.139C95.7997 28.139 95.8565 28.139 95.97 28.139C96.2539 28.0822 96.5945 28.0822 96.8783 28.0822C97.9001 27.9687 98.9219 27.9119 100 27.7984C100.455 27.7416 100.852 27.7416 101.249 27.6849V27.401H101.306ZM87.9661 30.3529V29.6717C89.0446 29.5581 90.1799 29.4446 91.3153 29.3311C92.337 29.2175 93.3021 29.104 94.2671 29.0473C95.1186 28.9905 95.97 28.9337 96.8215 28.8202C97.673 28.7634 98.5245 28.7067 99.376 28.6499C100.057 28.5931 100.738 28.5364 101.363 28.4796V29.1608C98.4677 29.3878 95.5727 29.6149 92.7344 29.842C91.0882 30.069 89.4987 30.1826 87.9661 30.3529ZM87.9661 28.5931C80.8704 29.2743 73.8882 30.1826 66.906 31.1476C53.7363 33.1344 40.6802 35.5185 27.7376 38.5839C23.7072 39.4922 19.6769 40.5139 15.6465 41.5925C14.6247 41.8763 13.5462 42.1601 12.5244 42.444C11.6729 42.671 10.8782 42.9549 10.0834 43.1819C9.62932 43.3522 9.17519 43.4658 8.6643 43.6361L8.72107 43.7496C8.77783 43.7496 8.8346 43.6928 8.8346 43.6928C8.94813 43.6361 9.06166 43.636 9.11843 43.5793C9.45902 43.5225 9.79961 43.409 10.1402 43.2955C11.2755 43.0116 12.4676 42.671 13.6029 42.3872C17.0656 41.479 20.4148 40.5707 23.8775 39.776L28.5891 38.7542C23.6505 39.8895 18.7118 41.1384 13.83 42.5007C11.5594 43.1252 9.28872 43.7496 7.01809 44.4308C6.6775 44.5443 6.28014 44.6578 5.93954 44.7146C5.65571 44.8281 5.37188 44.9417 5.08806 44.9984C4.86099 45.1687 4.6907 45.2823 4.46363 45.339C4.3501 45.3958 4.1798 45.4526 4.06627 45.5661C4.00951 45.6229 4.1798 45.5661 4.1798 45.5661C4.29334 45.5093 4.46363 45.5093 4.57716 45.4526C5.08806 45.2823 5.59895 45.1687 6.16661 44.9984C7.64252 44.5443 9.11843 44.1469 10.5943 43.7496C11.6729 43.4658 12.7514 43.1252 13.7732 42.8413C13.83 42.8413 13.8868 42.7846 13.8868 42.7846C13.83 42.8413 13.7732 42.8413 13.7165 42.8413C13.1488 43.0116 12.5244 43.1819 11.9567 43.3522C11.5594 43.4658 11.162 43.5793 10.7646 43.6928C10.6511 43.6928 10.5376 43.7496 10.4808 43.7496C10.424 43.8063 10.424 43.8063 10.3673 43.8063C10.3105 43.8631 10.4808 43.7496 10.5376 43.7496C10.7079 43.6928 10.8782 43.6928 11.0485 43.6361C12.2405 43.3522 13.3759 43.0116 14.5112 42.7846C30.8029 38.6407 47.265 35.3483 63.8974 32.8506L80.473 30.807C67.5872 32.3964 54.7581 34.3832 41.929 36.7674C37.6148 37.6189 33.2439 38.5271 28.8729 39.4922C26.1482 40.1166 23.4802 40.741 20.8122 41.4222C19.9039 41.6493 18.9957 41.8763 18.0874 42.1034C17.8036 42.1601 17.5765 42.2169 17.2927 42.3304C17.2359 42.3872 17.1224 42.3872 17.0656 42.3872C17.0089 42.444 17.0089 42.444 16.9521 42.444H16.8953V42.5007C16.8953 42.5007 16.8953 42.5007 16.9521 42.444C17.0089 42.444 17.0656 42.3872 17.1792 42.3872C17.5198 42.3304 17.8036 42.2169 18.1442 42.1601C19.3363 41.8763 20.5851 41.5357 21.7772 41.2519C25.694 40.3436 29.6109 39.4354 33.5277 38.5839C40.2261 37.1648 46.9244 35.9159 53.6228 34.7806C65.0327 32.8506 76.4426 31.4314 87.9093 30.3529V29.6717C81.6083 30.3529 75.4208 31.0908 69.1766 31.8855C67.7575 32.0558 71.5608 31.5449 72.8664 31.3746C73.6043 31.2611 74.2855 31.1476 75.0235 31.0908C75.2505 31.0341 75.5344 31.0341 75.7614 31.0341C75.875 30.9773 75.9317 30.9773 75.9885 30.9773C76.0453 30.9205 76.102 30.9205 76.102 30.9205C80.0189 30.4096 83.9357 30.0123 87.8525 29.5581V28.5931H87.9661Z" fill="#EC1C24"/>
<path d="M215.52 31.7152C215.407 31.7152 215.293 31.6584 215.18 31.6584C218.529 32.0558 221.821 32.6802 225.114 33.2479C225.625 33.3614 226.192 33.4182 226.76 33.5317C226.93 33.5885 227.101 33.5885 227.271 33.6452C227.328 33.6452 227.384 33.6452 227.441 33.702C227.498 33.702 227.555 33.702 227.555 33.7588C227.611 33.7588 227.611 33.7588 227.668 33.7588C227.725 33.7588 227.725 33.8155 227.725 33.8155H227.782C227.668 33.8155 227.555 33.8155 227.441 33.7588C226.93 33.702 226.363 33.6452 225.852 33.5317C225.17 33.4182 224.489 33.3047 223.865 33.1911C222.105 32.9073 220.345 32.6235 218.586 32.3396C218.132 32.2829 217.734 32.2261 217.337 32.1126C216.996 32.0558 216.656 31.999 216.315 31.9423C216.201 31.8855 216.088 31.8855 215.974 31.8855C215.918 31.8287 215.804 31.8287 215.747 31.8287C215.634 31.772 215.464 31.772 215.52 31.7152Z" fill="#EC1C24"/>
<path d="M205.359 30.4664C206.097 30.5231 206.835 30.5799 207.573 30.6934C207.8 30.6934 208.027 30.7502 208.198 30.7502C208.254 30.7502 208.368 30.807 208.425 30.807C208.481 30.807 208.538 30.807 208.538 30.807C208.595 30.8637 208.595 30.8637 208.652 30.8637C208.708 30.8637 208.708 30.8637 208.708 30.8637H208.652C208.425 30.8637 208.311 30.8637 208.141 30.807C207.516 30.7502 206.892 30.6934 206.324 30.6367C206.211 30.6367 206.04 30.5799 205.927 30.5799C205.87 30.5799 205.813 30.5799 205.7 30.5799C205.643 30.5799 205.643 30.5231 205.586 30.5231C205.473 30.5799 205.473 30.5231 205.359 30.4664C205.359 30.5231 205.302 30.4664 205.359 30.4664Z" fill="#EC1C24"/>
<path d="M122.993 26.5496C127.534 26.3793 132.075 26.2657 136.617 26.2657C143.542 26.209 150.468 26.1522 157.393 26.3793L161.083 26.5496C155.69 26.436 150.354 26.3225 145.018 26.3225C137.525 26.3225 130.032 26.436 122.482 26.7199C121.914 26.7766 121.347 26.7766 120.836 26.7766C120.666 26.7766 120.495 26.7766 120.325 26.7766C120.268 26.7766 120.155 26.7766 120.098 26.7766C120.041 26.7766 119.984 26.7766 119.984 26.7766C119.984 26.7199 120.041 26.7199 120.041 26.7199C120.211 26.7199 120.325 26.6631 120.495 26.6631C121.347 26.6631 122.198 26.6063 122.993 26.5496ZM161.083 26.4928L179.929 27.4011C173.685 27.0037 167.384 26.7199 161.083 26.4928Z" fill="#EC1C24"/>
<path d="M82.3476 29.5013C75.4222 30.3528 68.5535 31.2043 61.6281 32.226C54.5324 33.3046 47.4934 34.4967 40.4545 35.9158C39.4894 36.0861 38.5244 36.2564 37.5594 36.5402C36.935 36.6538 36.3106 36.8241 35.6861 36.9944C35.5726 37.0511 35.4591 37.0511 35.3455 37.1079C35.4023 37.1079 35.4023 37.1079 35.4591 37.1079C35.6861 37.0511 35.8564 37.0511 36.0835 36.9944C36.4809 36.9376 36.935 36.8241 37.3323 36.7673C41.9304 35.8591 46.4716 34.9508 51.0697 34.2128C57.768 33.0775 64.4664 32.0557 71.2215 31.1475C76.0466 30.5231 80.7582 29.8986 85.5832 29.3878C84.5047 29.3878 83.4261 29.4445 82.3476 29.5013Z" fill="#EC1C24"/>
<path d="M36.4819 2.48107C36.6522 4.7517 34.8357 7.53322 36.9928 9.29296C39.2634 8.49823 36.8792 6.2276 37.9578 4.5814C39.1499 2.93519 40.7393 1.51605 41.9314 0.323966C46.6429 0.0401373 51.8086 -0.470754 55.7822 1.68634C62.5941 0.437498 71.109 -0.697817 77.637 1.97017C81.6106 0.210435 87.1169 -0.584286 91.3744 1.68634L92.5664 2.99196C93.7585 0.437497 96.313 0.210434 98.8674 0.096903C101.365 -0.0733943 103.92 1.00516 105.112 3.16225C104.544 7.24939 103.693 11.4501 104.43 15.7075C106.304 14.4586 107.496 11.4501 108.688 9.06589C107.496 5.14906 111.072 2.76489 113.627 0.891624C118.679 0.664561 126.285 -1.26548 129.521 3.55961C130.032 4.63816 128.442 5.71671 129.748 6.3979C134.005 -1.66284 143.883 -0.0166285 151.092 0.891624C153.76 1.68634 156.541 2.0837 158.528 4.35434C164.772 -2.57109 175.728 0.437498 183.165 2.65136L187.649 5.43288C192.588 0.380732 200.194 -0.584286 207.12 1.17545C209.277 2.0837 211.831 4.01374 212.74 6.2276C214.613 9.29296 209.788 12.8692 214.045 15.4237C214.443 18.6025 213.478 21.2705 211.377 23.4276C204.906 28.8771 195.426 30.6369 187.649 27.0039C185.946 25.6983 185.946 23.825 185.151 22.122C179.532 27.2877 172.379 29.4448 164.602 28.8771L160.856 27.0039C158.869 28.7636 156.144 29.8422 153.363 28.8771L146.04 24.3926C143.769 29.8422 137.411 29.6151 132.473 28.6501C131.167 26.1524 129.464 29.0474 127.818 29.161C124.753 28.6501 120.098 30.6369 118.849 26.493C118.735 25.9253 118.508 25.0171 117.77 24.8468C111.924 24.0521 108.858 31.1478 103.011 29.1042L99.7757 27.2309C97.6186 28.9907 94.4397 29.7854 91.8853 28.5933L87.0602 25.528C84.7895 28.7636 81.3268 29.7854 77.6938 28.8204C75.4799 25.528 72.812 29.5016 69.8601 28.5933C64.4106 28.0257 57.5987 31.2613 53.4548 26.72C50.503 30.3531 44.2588 29.1042 40.7961 27.7986C39.4337 27.1174 39.8311 25.6415 39.4337 24.7332C36.6522 27.0039 31.8838 25.8118 28.932 25.6415C27.3426 27.2309 25.4693 29.1042 23.0852 29.1042C20.8145 28.5933 18.1465 29.388 16.6706 27.2309C15.4218 24.7332 16.6706 22.0653 16.6706 19.3973C18.2601 12.7557 11.6185 4.5814 20.4172 0.834858C25.072 0.153669 30.4079 -0.641052 34.9492 0.834858L36.4819 2.48107Z" fill="#262223"/>
<path d="M34.0409 3.78667L33.3597 2.99195C28.8184 2.87842 24.8448 1.68634 20.8145 3.95697C22.2336 9.91738 21.4389 16.8428 21.3821 22.9735C23.0851 24.2223 26.264 24.2223 28.1372 22.9735C26.7181 20.3055 27.7966 17.524 27.3425 14.3451L28.1372 13.5504C29.1023 14.1748 29.2158 15.1398 29.4996 15.9345C30.2943 18.8296 32.3947 22.3491 36.425 21.2705C41.3637 22.3491 40.2851 15.7075 44.5425 14.6289C46.0184 17.4105 43.8614 21.2705 45.3373 23.5412C47.6079 24.1088 51.0706 24.8468 52.9439 22.9735C51.9789 16.7293 52.7736 9.29295 53.2277 3.50284C50.3894 2.02693 46.3023 2.70812 42.9531 2.93519C43.8614 7.47645 38.7524 10.8256 36.1412 14.2883C34.7221 11.1662 32.3379 7.24938 34.0409 3.78667Z" fill="white"/>
<path d="M90.0682 4.35433C87.5137 2.0837 81.9507 1.68634 79.5098 4.63816C79.9071 10.2012 80.8154 17.1834 79.7936 23.0303C81.2695 24.5062 82.8589 23.5979 84.7322 23.825C86.8893 21.4408 84.3349 17.8646 85.9243 14.9128C90.0682 17.6943 92.2253 24.3926 98.0722 24.2791C103.408 22.8032 101.308 16.559 101.819 12.2448C101.421 8.89559 103.806 5.60318 101.819 3.04872C99.6616 2.93519 96.7666 1.97017 95.1771 3.84344C96.0854 6.90879 96.3692 10.9392 95.4042 14.2316C93.5309 11.1662 89.1032 8.32794 90.0682 4.35433Z" fill="white"/>
<path d="M75.5359 3.5029C69.5188 1.91346 62.4798 2.87848 56.5762 4.29762C57.1438 9.6336 57.5412 15.0831 57.2574 20.7029L58.6197 23.3709C64.0693 24.9604 69.1214 23.4844 74.7412 23.4844C76.501 23.3709 77.2957 21.7815 77.0118 20.4191C73.6627 18.9432 70.4838 19.7379 66.6237 19.6244C65.829 19.4541 65.6587 18.6594 65.829 18.0349C66.1128 16.3887 68.0996 16.6726 69.5755 16.6726C71.3353 15.9914 75.9901 17.3537 74.5142 13.4937C72.9247 10.5419 68.5537 12.699 65.6019 11.6204C65.8858 10.5419 64.9207 8.78212 66.3966 8.27122C69.6891 7.9874 73.7194 8.83888 76.2739 6.28442C76.3307 5.66 77.0118 3.95703 75.5359 3.5029Z" fill="white"/>
<path d="M158.018 7.64674C156.258 4.29756 152.568 3.67314 149.333 2.93519C144.451 2.70812 138.717 1.7431 134.857 4.80846C136.447 10.3715 137.525 16.9563 135.936 22.6329C137.242 25.0171 140.818 23.8818 143.202 23.7115C143.883 21.2138 141.783 19.1702 143.202 16.8996C143.997 16.8996 144.962 16.7293 145.586 17.1834C150.411 19.1702 154.101 24.6197 159.834 23.7115C161.026 23.4276 162.219 22.2923 161.708 21.2138C159.153 19.227 155.407 18.1484 153.704 15.6507C155.407 15.2534 156.655 14.2883 157.677 12.9827C158.245 11.3933 159.21 9.34972 158.018 7.64674Z" fill="white"/>
<path d="M187.308 10.2011C183.164 2.19717 173.003 2.19717 164.204 2.99189C163.126 3.16219 162.501 4.35427 162.785 5.65988C164.772 10.2011 164.658 15.7642 164.658 21.2705L165.567 22.6896C172.492 25.5279 180.666 22.9734 185.662 17.5239C187.421 15.5371 187.705 12.5853 187.308 10.2011Z" fill="white"/>
<path d="M208.765 4.86524C204.224 1.40253 196.107 2.02695 191.849 5.37613C190.487 6.85204 189.692 8.83884 190.203 10.8824C191.906 16.4455 198.207 15.4237 202.975 15.9346C203.883 15.9346 205.132 16.7293 205.246 17.8078C201.499 21.5544 195.539 17.9214 190.998 18.9999C190.714 19.9649 190.316 21.5544 191.281 22.3491C196.731 25.0171 204.678 24.2224 209.787 20.9867C211.376 19.7946 211.66 17.6375 211.376 15.9346C209.219 11.3933 203.656 13.0963 199.683 11.9042C198.491 11.3933 197.98 10.1445 198.264 8.83884C199.058 6.68174 201.159 5.37613 203.6 5.60319C206.268 6.28438 205.303 9.7471 206.665 11.6204C207.857 12.1313 209.446 11.8474 210.411 10.8256C211.036 8.72531 210.525 6.34115 208.765 4.86524Z" fill="white"/>
<path d="M127.135 4.86517L126.056 3.10543C122.196 2.93513 117.541 2.42424 113.908 3.78662C113 10.4282 108.004 16.4454 104.201 22.349C105.393 24.7332 109.026 24.2223 111.524 23.7682C112.319 22.6896 111.694 20.3055 113.908 20.419C117.484 20.2487 124.864 17.751 124.694 24.1655C127.475 23.7682 130.54 24.6764 132.925 23.3708C131.335 18.1484 128.781 13.38 127.078 8.27111V4.86517H127.135Z" fill="white"/>
<path d="M151.998 9.00905C150.012 7.13578 146.435 8.21433 143.994 8.32786C144.165 9.63347 143.597 11.2797 144.392 12.1879C146.095 12.5853 147.287 11.677 148.933 11.9041C150.125 11.3932 152.396 10.9959 151.998 9.00905Z" fill="#262223"/>
<path d="M178.112 10.4851C176.92 7.70357 174.252 7.9874 171.868 7.9874C170.562 10.9392 170.562 15.3102 171.868 18.2052C173.287 18.0917 175.047 17.8646 176.125 16.7861C177.715 14.9696 179.077 12.7557 178.112 10.4851Z" fill="#262223"/>
<path d="M120.437 14.856C120.04 13.6071 119.472 12.188 118.45 11.3932L116.293 15.1398C117.485 15.5372 119.472 15.4236 120.437 14.856Z" fill="#262223"/>
<path d="M217.508 5.66C217.508 3.78673 218.927 2.36759 220.743 2.36759C222.56 2.36759 223.979 3.78673 223.979 5.66C223.979 7.59004 222.56 8.95242 220.743 8.95242C218.927 8.95242 217.508 7.59004 217.508 5.66ZM220.743 9.63361C222.9 9.63361 224.774 7.93063 224.774 5.66C224.774 3.38937 222.9 1.6864 220.743 1.6864C218.586 1.6864 216.713 3.38937 216.713 5.66C216.713 7.9874 218.586 9.63361 220.743 9.63361ZM219.892 6.0006H220.686L221.879 7.9874H222.673L221.368 5.94383C222.049 5.88707 222.56 5.48971 222.56 4.69499C222.56 3.78673 222.049 3.38937 220.97 3.38937H219.211V7.9874H219.892V6.0006ZM219.892 5.37618V3.95703H220.857C221.368 3.95703 221.879 4.07056 221.879 4.63822C221.879 5.31941 221.368 5.37618 220.743 5.37618H219.892Z" fill="white"/>
<path d="M18.7141 43.8633C19.9629 43.2956 21.2118 43.0118 22.5174 43.0118C24.5042 43.0118 25.4692 44.0336 25.4692 46.0204C25.4692 48.0072 24.8448 49.7669 23.5392 51.4131C22.2335 53.0026 20.8712 53.854 19.452 53.854C19.2817 53.854 19.0547 53.7973 18.7708 53.7405C18.3735 53.7973 18.1464 53.854 18.0896 53.854C17.522 53.854 17.2949 53.6837 17.2949 53.2864C17.2949 53.1161 17.3517 52.889 17.4085 52.6052C18.3735 48.4045 18.8844 45.7365 18.8844 44.6012C18.8844 44.3174 18.8276 44.0903 18.7141 43.8633ZM19.6223 52.2078C20.0197 52.3214 20.3603 52.3781 20.5873 52.3781C21.2118 52.3781 21.8362 51.7537 22.4038 50.5616C22.9715 49.3695 23.2553 48.0072 23.2553 46.4745C23.2553 45.0554 22.858 44.3174 22.0065 44.3174C21.8362 44.3174 21.5524 44.3742 21.2118 44.4309L19.6223 52.2078Z" fill="white"/>
<path d="M27.9097 50.2777C27.8529 50.6183 27.8529 50.9022 27.8529 51.0725C27.8529 52.0942 28.2503 52.6051 29.1018 52.6051C29.8965 52.6051 30.748 52.2078 31.7698 51.3563C31.8833 51.5834 31.94 51.7537 31.94 51.924C31.94 52.4348 31.5427 52.889 30.748 53.2863C29.9532 53.6269 29.1585 53.7972 28.3638 53.7972C26.4338 53.7972 25.4688 52.9457 25.4688 51.2995C25.4688 49.7101 25.9796 48.2909 27.0014 47.0421C28.0232 45.7933 29.2721 45.1121 30.6912 45.1121C31.8833 45.1121 32.4509 45.623 32.4509 46.6447C32.4509 47.7233 31.9968 48.5748 31.1453 49.1992C30.3506 49.8804 29.2153 50.221 27.9097 50.2777ZM28.0232 49.1992C29.6127 49.1992 30.4074 48.518 30.4074 47.1556C30.4074 46.588 30.1803 46.3041 29.7829 46.3041C29.1018 46.3041 28.4773 47.2692 28.0232 49.1992Z" fill="white"/>
<path d="M37.845 50.5049C36.5962 52.7187 35.4608 53.854 34.4391 53.854C33.3605 53.854 32.8496 53.1161 32.8496 51.5834C32.8496 50.1075 33.3037 48.7451 34.1552 47.3827C35.0067 46.0204 36.0285 45.3392 37.2206 45.3392C37.845 45.3392 38.3559 45.5095 38.81 45.7933C38.9235 45.1689 39.0371 44.6012 39.0371 44.1471C39.0371 43.9768 39.0371 43.8065 38.9803 43.5794C39.4344 43.2956 39.8886 43.1821 40.3427 43.1821C40.9671 43.1821 41.3077 43.4659 41.3077 43.9768C41.3077 44.2606 41.2509 44.658 41.1374 45.1121C40.3427 48.4045 39.9453 50.6184 39.9453 51.8105C39.9453 52.3781 40.0589 52.889 40.2859 53.3431C39.9453 53.627 39.4912 53.7973 39.0371 53.7973C38.1856 53.7973 37.7315 53.3431 37.7315 52.3781C37.6747 51.8672 37.7315 51.2428 37.845 50.5049ZM38.4127 47.553C37.9585 46.9286 37.5044 46.588 36.9935 46.588C36.4826 46.588 36.0285 47.0989 35.6311 48.1775C35.2338 49.256 35.0635 50.221 35.0635 51.0725C35.0635 51.6402 35.177 51.9808 35.4608 51.9808C35.7447 51.9808 36.2556 51.2996 37.0503 49.9372C37.5612 49.1992 37.9585 48.4045 38.4127 47.553Z" fill="white"/>
<path d="M42.5 45.5662C43.0677 45.3391 43.5786 45.2256 44.0327 45.2256C44.6571 45.2256 44.941 45.4527 44.941 45.9636C44.941 46.1906 44.8842 46.4177 44.8274 46.7583C44.1463 49.4263 43.8057 51.2428 43.8057 52.2078C43.8057 52.6619 43.9192 53.0593 44.1463 53.3999C43.6921 53.6837 43.238 53.854 42.7839 53.854C41.9892 53.854 41.5918 53.4567 41.5918 52.7187C41.5918 52.0943 41.7621 51.0157 42.1027 49.5398C42.4433 48.0639 42.6136 46.9854 42.6136 46.3609C42.6703 46.0771 42.6136 45.7933 42.5 45.5662ZM45.2248 43.9768C44.7707 44.2038 44.3733 44.3174 44.0327 44.3174C43.4651 44.3174 43.238 44.1471 43.238 43.8632C43.238 43.7497 43.238 43.5794 43.2948 43.4091C43.3515 43.182 43.3515 43.0685 43.3515 42.955C43.3515 42.8982 43.3515 42.7847 43.2948 42.7279C43.8057 42.5576 44.2598 42.4441 44.6571 42.4441C45.2248 42.4441 45.5654 42.6712 45.5654 43.1253C45.5086 43.2388 45.3951 43.5794 45.2248 43.9768Z" fill="white"/>
<path d="M51.2413 51.6969C51.298 51.924 51.3548 52.0943 51.3548 52.2646C51.3548 52.7187 51.0142 53.1161 50.2763 53.4567C49.5383 53.7973 48.8004 53.9108 48.0624 53.9108C46.3027 53.9108 45.4512 53.0593 45.4512 51.3564C45.4512 49.7101 45.9621 48.291 46.9271 47.0422C47.8921 45.7933 49.1409 45.1689 50.6169 45.1689C51.8657 45.1689 52.4901 45.4527 52.4901 45.9636C52.4901 46.4177 52.0928 46.8719 51.298 47.3827C50.9574 46.7016 50.5601 46.361 49.9924 46.361C48.5733 46.361 47.8921 47.8369 47.8921 50.7887C47.8921 51.9808 48.2895 52.6052 49.0842 52.6052C49.7086 52.4917 50.4466 52.2646 51.2413 51.6969Z" fill="white"/>
<path d="M57.2005 50.5049C55.9516 52.7187 54.8163 53.854 53.7945 53.854C52.716 53.854 52.2051 53.1161 52.2051 51.5834C52.2051 50.1075 52.6592 48.6884 53.5107 47.2692C54.3622 45.8501 55.384 45.1689 56.6328 45.1689C57.2572 45.1689 57.7681 45.3392 58.2223 45.623C58.4493 45.3959 58.7331 45.2256 59.1305 45.2256C59.5846 45.2256 60.0388 45.3392 60.4929 45.5662C60.2091 46.1339 59.9252 47.1557 59.6414 48.5181C59.3576 49.8804 59.244 50.959 59.244 51.8105C59.244 52.3781 59.3576 52.889 59.5846 53.3432C59.244 53.627 58.7899 53.7973 58.3358 53.7973C57.4843 53.7973 57.0302 53.3432 57.0302 52.3781C57.0302 51.8672 57.0869 51.2428 57.2005 50.5049ZM57.8249 47.4395C57.3708 46.8151 56.8599 46.4745 56.4057 46.4745C55.8949 46.4745 55.4407 47.0422 55.0434 48.1207C54.646 49.256 54.4757 50.221 54.4757 51.1293C54.4757 51.6969 54.5892 52.0375 54.8731 52.0375C55.1001 52.0375 55.5543 51.4699 56.2355 50.3913C56.8599 49.3128 57.4275 48.291 57.8249 47.4395Z" fill="white"/>
<path d="M62.1405 47.6666H61.8566C61.4025 47.6666 60.9484 47.7802 60.4943 47.9505C60.4943 47.7802 60.4375 47.6099 60.4375 47.4963C60.4375 47.099 60.551 46.8151 60.7213 46.6448C60.8916 46.4745 61.4593 46.361 62.3675 46.361C62.5946 45.2257 62.7081 44.4877 62.7081 44.2039C62.7081 43.9201 62.6514 43.693 62.5378 43.4092C63.1055 43.1821 63.6164 43.0686 64.0705 43.0686C64.6949 43.0686 65.0355 43.2957 65.0355 43.8066C65.0355 44.0904 64.9788 44.5445 64.8085 45.0554C64.5814 45.9069 64.4679 46.3043 64.4679 46.3043H65.1491C65.66 46.3043 66.2844 46.2475 66.9088 46.134C66.852 47.099 66.2844 47.6099 65.2058 47.6099C65.0923 47.6099 64.922 47.6099 64.7517 47.6099C64.5246 47.6099 64.3543 47.6099 64.2408 47.6099C63.8434 49.4264 63.6732 50.6184 63.6732 51.2429C63.6732 51.8673 63.9002 52.2079 64.3543 52.2079C64.7517 52.2079 65.2626 51.9808 65.8302 51.5835C65.9438 51.8673 66.0573 52.0944 66.0573 52.2647C66.0573 52.7188 65.7735 53.0594 65.2626 53.3432C64.7517 53.627 64.184 53.7973 63.5596 53.7973C62.1972 53.7973 61.5161 53.1161 61.5161 51.8105C61.5728 50.959 61.7431 49.5967 62.1405 47.6666Z" fill="white"/>
<path d="M69.2925 50.2777C69.2357 50.6183 69.2357 50.9022 69.2357 51.0725C69.2357 52.0942 69.6331 52.6051 70.4846 52.6051C71.2793 52.6051 72.1308 52.2078 73.1526 51.3563C73.2661 51.5834 73.3229 51.7537 73.3229 51.924C73.3229 52.4348 72.9255 52.889 72.1308 53.2863C71.3361 53.6269 70.5413 53.7972 69.7466 53.7972C67.8166 53.7972 66.8516 52.9457 66.8516 51.2995C66.8516 49.7101 67.3625 48.2909 68.3842 47.0421C69.406 45.7933 70.6549 45.1121 72.074 45.1121C73.2661 45.1121 73.8338 45.623 73.8338 46.6447C73.8338 47.7233 73.3796 48.5748 72.5281 49.1992C71.7334 49.8804 70.5981 50.221 69.2925 50.2777ZM69.406 49.1992C70.9955 49.1992 71.7902 48.518 71.7902 47.1556C71.7902 46.588 71.5631 46.3041 71.1658 46.3041C70.4846 46.3041 69.8601 47.2692 69.406 49.1992Z" fill="white"/>
<path d="M79.2278 50.5049C77.979 52.7187 76.8436 53.854 75.8219 53.854C74.7433 53.854 74.2324 53.1161 74.2324 51.5834C74.2324 50.1075 74.6865 48.7451 75.538 47.3827C76.3895 46.0204 77.4113 45.3392 78.6034 45.3392C79.2278 45.3392 79.7387 45.5095 80.1928 45.7933C80.3064 45.1689 80.4199 44.6012 80.4199 44.1471C80.4199 43.9768 80.4199 43.8065 80.3631 43.5794C80.8173 43.2956 81.2714 43.1821 81.7255 43.1821C82.3499 43.1821 82.6905 43.4659 82.6905 43.9768C82.6905 44.2606 82.6338 44.658 82.5202 45.1121C81.7255 48.4045 81.3281 50.6184 81.3281 51.8105C81.3281 52.3781 81.4417 52.889 81.6687 53.3431C81.3281 53.627 80.874 53.7973 80.4199 53.7973C79.5684 53.7973 79.1143 53.3431 79.1143 52.3781C79.0575 51.8672 79.1143 51.2428 79.2278 50.5049ZM79.7955 47.553C79.3413 46.9286 78.8872 46.588 78.3763 46.588C77.8654 46.588 77.4113 47.0989 77.0139 48.1775C76.6166 49.256 76.4463 50.221 76.4463 51.0725C76.4463 51.6402 76.5598 51.9808 76.8437 51.9808C77.1275 51.9808 77.6384 51.2996 78.4331 49.9372C78.944 49.1992 79.3413 48.4045 79.7955 47.553Z" fill="white"/>
<path d="M88.3651 47.6666H88.0813C87.6271 47.6666 87.173 47.7802 86.7189 47.9505C86.7189 47.7802 86.6621 47.6099 86.6621 47.4963C86.6621 47.099 86.7756 46.8151 86.9459 46.6448C87.1162 46.4745 87.6839 46.361 88.5922 46.361C88.8192 45.2257 88.9327 44.4877 88.9327 44.2039C88.9327 43.9201 88.876 43.693 88.7624 43.4092C89.3301 43.1821 89.841 43.0686 90.2951 43.0686C90.9195 43.0686 91.2601 43.2957 91.2601 43.8066C91.2601 44.0904 91.2034 44.5445 91.0331 45.0554C90.806 45.9069 90.6925 46.3043 90.6925 46.3043H91.3737C91.8846 46.3043 92.509 46.2475 93.1334 46.134C93.0766 47.099 92.509 47.6099 91.4304 47.6099C91.3169 47.6099 91.1466 47.6099 90.9763 47.6099C90.7492 47.6099 90.579 47.6099 90.4654 47.6099C90.0681 49.4264 89.8978 50.6184 89.8978 51.2429C89.8978 51.8673 90.1248 52.2079 90.579 52.2079C90.9763 52.2079 91.4872 51.9808 92.0549 51.5835C92.1684 51.8673 92.2819 52.0944 92.2819 52.2647C92.2819 52.7188 91.9981 53.0594 91.4872 53.3432C90.9763 53.627 90.4086 53.7973 89.7842 53.7973C88.4218 53.7973 87.7407 53.1161 87.7407 51.8105C87.7407 50.959 87.9677 49.5967 88.3651 47.6666Z" fill="white"/>
<path d="M96.0279 53.854C95.1764 53.854 94.4952 53.5702 93.9275 53.0593C93.4166 52.5484 93.1328 51.8105 93.1328 50.959C93.1328 49.5398 93.5869 48.2342 94.4952 46.9854C95.4034 45.7933 96.5388 45.1689 97.7876 45.1689C98.6391 45.1689 99.3203 45.4527 99.8312 45.9636C100.342 46.5313 100.626 47.2125 100.626 48.0639C100.626 49.4831 100.172 50.7887 99.2635 52.0375C98.3553 53.2864 97.2767 53.854 96.0279 53.854ZM96.4252 52.662C96.9929 52.662 97.447 52.1511 97.7876 51.1293C98.1282 50.1075 98.2985 49.0857 98.2985 48.0072C98.2985 46.9286 97.9579 46.4177 97.3335 46.4177C96.7658 46.4177 96.2549 46.9286 95.9143 47.9504C95.5737 48.9722 95.3467 49.994 95.3467 51.0725C95.4602 52.0943 95.8008 52.662 96.4252 52.662Z" fill="white"/>
<path d="M106.246 51.1861C106.303 52.2646 106.87 52.7755 108.006 52.7755C109.198 52.7755 109.822 52.2078 109.822 51.1293C109.822 50.6184 109.538 50.1075 109.027 49.6534C108.516 49.256 108.006 48.9154 107.495 48.5181C106.927 48.0072 106.7 47.4395 106.7 46.8151C106.7 45.7365 107.097 44.7715 107.949 44.0903C108.8 43.3524 109.765 43.0118 110.957 43.0118C112.32 43.0118 113.001 43.2956 113.001 43.92C113.001 44.3174 112.717 44.7715 112.093 45.1689C111.695 44.4877 111.071 44.1471 110.219 44.1471C109.198 44.1471 108.63 44.6012 108.63 45.5095C108.63 45.7365 108.687 45.9636 108.857 46.1907C109.027 46.4177 109.765 47.0422 111.071 48.0072C111.639 48.5748 111.922 49.1993 111.922 49.8804C111.922 51.0158 111.468 51.9808 110.503 52.7755C109.538 53.5702 108.46 53.9676 107.268 53.9676C106.643 53.9676 106.075 53.854 105.565 53.627C105.054 53.3999 104.77 53.1161 104.77 52.7187C104.713 52.1511 105.224 51.6402 106.246 51.1861Z" fill="white"/>
<path d="M115.273 50.2777C115.216 50.6183 115.216 50.9022 115.216 51.0725C115.216 52.0942 115.614 52.6051 116.465 52.6051C117.26 52.6051 118.111 52.2078 119.133 51.3563C119.247 51.5834 119.303 51.7537 119.303 51.924C119.303 52.4348 118.906 52.889 118.111 53.2863C117.317 53.6269 116.522 53.7972 115.727 53.7972C113.797 53.7972 112.832 52.9457 112.832 51.2995C112.832 49.7101 113.343 48.2909 114.365 47.0421C115.386 45.7933 116.635 45.1121 118.054 45.1121C119.247 45.1121 119.814 45.623 119.814 46.6447C119.814 47.7233 119.36 48.5748 118.509 49.1992C117.657 49.8804 116.579 50.221 115.273 50.2777ZM115.386 49.1992C116.976 49.1992 117.771 48.518 117.771 47.1556C117.771 46.588 117.544 46.3041 117.146 46.3041C116.408 46.3041 115.841 47.2692 115.386 49.1992Z" fill="white"/>
<path d="M122.538 53.6268C122.141 53.7403 121.743 53.7971 121.346 53.7971C120.665 53.7971 120.324 53.57 120.324 53.0591C120.324 52.7753 120.438 52.0941 120.722 51.0723C121.289 48.7449 121.573 47.0987 121.573 46.1905C121.573 45.9634 121.516 45.7931 121.46 45.5661C122.027 45.3958 122.481 45.2822 122.879 45.2822C123.503 45.2822 123.844 45.5661 123.844 46.077C123.844 46.4175 123.673 47.2123 123.39 48.5746C124.582 46.3608 125.603 45.2255 126.455 45.2255C126.909 45.2255 127.136 45.4525 127.136 45.8499C127.136 46.6446 126.739 47.4393 126.001 48.2908C125.83 48.007 125.66 47.8935 125.49 47.8935C124.979 47.8935 124.355 48.5746 123.617 49.9938C122.935 51.4129 122.538 52.4347 122.538 53.1159C122.425 53.2294 122.481 53.3997 122.538 53.6268Z" fill="white"/>
<path d="M132.131 45.3391C133.437 45.3958 134.061 45.6797 134.061 46.2473C134.061 46.7582 133.494 47.9503 132.302 49.8235C131.11 51.6968 130.258 52.7754 129.69 53.2295C129.123 53.6269 128.498 53.9107 127.76 54.0242V53.343C127.76 53.2863 127.76 53.2295 127.76 53.116C127.76 52.3212 127.647 51.0156 127.363 49.1424C127.079 47.2691 126.852 46.1905 126.568 45.9067C127.136 45.5094 127.704 45.2823 128.328 45.2823C129.009 45.2823 129.35 45.8499 129.407 46.9285C129.407 47.2691 129.407 47.6665 129.463 48.007C129.52 49.3127 129.577 50.5047 129.577 51.5833L131.166 48.9153C131.904 47.6097 132.245 46.6447 132.245 46.0202C132.188 45.7932 132.188 45.6229 132.131 45.3391Z" fill="white"/>
<path d="M135.027 45.5662C135.595 45.3391 136.106 45.2256 136.56 45.2256C137.184 45.2256 137.468 45.4527 137.468 45.9636C137.468 46.1906 137.412 46.4177 137.355 46.7583C136.674 49.4263 136.333 51.2428 136.333 52.2078C136.333 52.6619 136.447 53.0593 136.674 53.3999C136.219 53.6837 135.765 53.854 135.311 53.854C134.517 53.854 134.119 53.4567 134.119 52.7187C134.119 52.0943 134.289 51.0157 134.63 49.5398C134.971 48.0639 135.141 46.9854 135.141 46.3609C135.198 46.0771 135.141 45.7933 135.027 45.5662ZM137.809 43.9768C137.355 44.2038 136.957 44.3174 136.617 44.3174C136.049 44.3174 135.822 44.1471 135.822 43.8632C135.822 43.7497 135.822 43.5794 135.879 43.4091C135.936 43.182 135.936 43.0685 135.936 42.955C135.936 42.8982 135.936 42.7847 135.879 42.7279C136.39 42.5576 136.844 42.4441 137.184 42.4441C137.752 42.4441 138.093 42.6712 138.093 43.1253C138.036 43.2388 137.979 43.5794 137.809 43.9768Z" fill="white"/>
<path d="M143.825 51.6969C143.882 51.924 143.939 52.0943 143.939 52.2646C143.939 52.7187 143.598 53.1161 142.86 53.4567C142.122 53.7405 141.384 53.9108 140.646 53.9108C138.887 53.9108 138.035 53.0593 138.035 51.3564C138.035 49.7101 138.546 48.291 139.511 47.0422C140.476 45.7933 141.725 45.1689 143.201 45.1689C144.45 45.1689 145.074 45.4527 145.074 45.9636C145.074 46.4177 144.677 46.8719 143.882 47.3827C143.541 46.7016 143.144 46.361 142.576 46.361C141.157 46.361 140.476 47.8369 140.476 50.7887C140.476 51.9808 140.873 52.6052 141.668 52.6052C142.293 52.4917 143.031 52.2646 143.825 51.6969Z" fill="white"/>
<path d="M147.232 50.2777C147.175 50.6183 147.175 50.9022 147.175 51.0725C147.175 52.0942 147.573 52.6051 148.424 52.6051C149.219 52.6051 150.07 52.2078 151.092 51.3563C151.206 51.5834 151.262 51.7537 151.262 51.924C151.262 52.4348 150.865 52.889 150.07 53.2863C149.276 53.6269 148.481 53.7972 147.686 53.7972C145.756 53.7972 144.791 52.9457 144.791 51.2995C144.791 49.7101 145.302 48.2909 146.324 47.0421C147.345 45.7933 148.594 45.1121 150.013 45.1121C151.206 45.1121 151.773 45.623 151.773 46.6447C151.773 47.7233 151.319 48.5748 150.468 49.1992C149.616 49.8804 148.538 50.221 147.232 50.2777ZM147.345 49.1992C148.935 49.1992 149.73 48.518 149.73 47.1556C149.73 46.588 149.503 46.3041 149.105 46.3041C148.367 46.3041 147.8 47.2692 147.345 49.1992Z" fill="white"/>
<path d="M162.559 52.4917C161.367 53.4567 160.175 53.9676 158.869 53.9676C156.996 53.9676 156.088 53.2296 156.088 51.7537C156.088 50.1643 157.053 48.9154 159.04 48.0072C158.415 47.553 158.131 46.9854 158.131 46.1907C158.131 45.2256 158.472 44.4309 159.153 43.8633C159.834 43.2956 160.743 43.0118 161.878 43.0118C163.411 43.0118 164.149 43.2956 164.149 43.8633C164.149 44.2039 163.922 44.6012 163.411 44.9986C163.127 44.3742 162.616 44.0336 161.878 44.0336C160.743 44.0336 160.175 44.658 160.175 45.9068C160.175 46.4745 160.402 46.8719 160.799 47.1557C161.14 47.0422 161.424 47.0422 161.651 47.0422C161.935 47.0422 162.275 47.1557 162.559 47.326C162.275 47.8936 161.935 48.3478 161.481 48.7451C161.367 48.7451 161.31 48.7451 161.197 48.7451C160.856 48.7451 160.459 48.6884 160.061 48.5181C159.04 49.1993 158.529 50.1075 158.529 51.2428C158.529 52.1511 158.983 52.6052 159.948 52.6052C160.856 52.6052 161.651 52.2078 162.332 51.4131C163.013 50.6184 163.354 49.8237 163.354 49.1425C163.354 48.9722 163.24 48.8019 163.07 48.6884C162.9 48.5748 162.786 48.4613 162.786 48.3478C162.786 48.1207 162.957 47.7233 163.354 47.2124C163.808 47.3827 164.376 47.4963 164.943 47.4963C165.738 47.4963 166.476 47.3827 167.214 47.1557C167.044 48.4045 166.419 49.0857 165.341 49.0857C165.227 49.0857 165.114 49.0857 165 49.0857C164.432 50.6752 164.205 52.0375 164.205 53.2864C164.205 53.627 164.319 53.9676 164.546 54.3649C164.035 54.8758 163.581 55.1029 163.127 55.1029C162.673 55.1029 162.446 54.8758 162.446 54.3649C162.275 53.9676 162.389 53.3999 162.559 52.4917Z" fill="white"/>
<path d="M175.67 53.4566C176.635 53.9675 177.713 54.2513 178.849 54.2513C179.076 54.2513 179.303 54.2513 179.53 54.2513C178.906 55.3299 178.281 55.8975 177.713 55.8975C177.146 55.8975 176.067 55.2731 174.478 54.0243C174.194 54.081 173.967 54.081 173.797 54.081C172.094 54.081 171.242 53.0025 171.242 50.9022C171.242 49.1424 171.81 47.3827 172.945 45.6797C174.08 43.9767 175.386 43.1252 176.862 43.1252C178.565 43.1252 179.416 44.2038 179.416 46.3041C179.416 47.6665 179.076 49.0289 178.338 50.448C177.657 51.6969 176.748 52.7754 175.67 53.4566ZM174.535 52.8322C175.273 52.8322 175.897 52.0375 176.351 50.3913C176.862 48.7451 177.089 47.2691 177.089 45.9635C177.089 44.7715 176.805 44.147 176.181 44.147C175.443 44.147 174.875 44.9417 174.364 46.588C173.853 48.2342 173.626 49.7101 173.626 51.0157C173.626 52.2078 173.91 52.8322 174.535 52.8322Z" fill="white"/>
<path d="M185.094 45.3958C185.491 45.2822 185.889 45.2255 186.286 45.2255C186.967 45.2255 187.365 45.4525 187.365 45.9634C187.365 46.2472 187.308 46.5878 187.194 46.9852L186.967 47.9502C186.57 49.5397 186.4 50.8453 186.4 51.7535C186.4 52.3212 186.513 52.8321 186.74 53.2862C186.343 53.57 185.945 53.7403 185.491 53.7403C184.64 53.7403 184.186 53.2862 184.186 52.3212C184.186 51.8103 184.242 51.1859 184.356 50.5047C183.221 52.7185 182.142 53.8539 181.007 53.8539C180.155 53.8539 179.701 53.3997 179.701 52.5482C179.701 51.9238 179.871 50.8453 180.212 49.3694C180.553 47.8935 180.723 46.8149 180.723 46.1905C180.723 45.9634 180.666 45.7364 180.609 45.5661C181.177 45.3958 181.631 45.2822 182.029 45.2822C182.653 45.2822 182.994 45.5661 182.994 46.077C182.994 46.2472 182.937 46.5878 182.823 47.0987C182.256 49.6532 181.972 51.2426 181.972 51.8103C181.972 52.0374 182.029 52.1509 182.199 52.1509C182.483 52.1509 183.05 51.3562 183.959 49.7667C184.867 48.1773 185.321 46.9284 185.321 46.077C185.207 45.7931 185.151 45.6228 185.094 45.3958Z" fill="white"/>
<path d="M192.7 50.5049C191.452 52.7187 190.316 53.854 189.295 53.854C188.216 53.854 187.705 53.1161 187.705 51.5834C187.705 50.1075 188.159 48.6884 189.011 47.2692C189.862 45.8501 190.884 45.1689 192.133 45.1689C192.757 45.1689 193.268 45.3392 193.722 45.623C193.949 45.3959 194.233 45.2256 194.631 45.2256C195.085 45.2256 195.596 45.3392 195.993 45.5662C195.709 46.1339 195.425 47.1557 195.141 48.5181C194.858 49.8804 194.744 50.959 194.744 51.8105C194.744 52.3781 194.858 52.889 195.085 53.3432C194.744 53.627 194.29 53.7973 193.836 53.7973C192.984 53.7973 192.53 53.3432 192.53 52.3781C192.587 51.8672 192.644 51.2428 192.7 50.5049ZM193.325 47.4395C192.871 46.8151 192.36 46.4745 191.906 46.4745C191.395 46.4745 190.941 47.0422 190.543 48.1207C190.146 49.256 189.976 50.221 189.976 51.1293C189.976 51.6969 190.089 52.0375 190.373 52.0375C190.6 52.0375 191.054 51.4699 191.735 50.3913C192.417 49.3128 192.928 48.291 193.325 47.4395Z" fill="white"/>
<path d="M197.811 43.4658C198.379 43.2388 198.89 43.1252 199.344 43.1252C199.968 43.1252 200.252 43.3523 200.252 43.8632C200.252 44.147 200.196 44.5444 200.082 45.0553C199.912 45.7932 199.798 46.1338 199.798 46.1906L199.003 50.3345C198.833 51.1292 198.776 51.7536 198.776 52.151C198.776 52.6051 198.89 53.0025 199.117 53.3431C198.663 53.6269 198.209 53.7972 197.755 53.7972C196.96 53.7972 196.562 53.3998 196.562 52.6619C196.562 52.3213 196.676 51.6401 196.846 50.6183L197.698 46.4177C197.925 45.3391 198.038 44.6012 198.038 44.2606C197.982 43.9767 197.925 43.6929 197.811 43.4658Z" fill="white"/>
<path d="M201.557 45.5662C202.124 45.3391 202.635 45.2256 203.089 45.2256C203.714 45.2256 203.998 45.4527 203.998 45.9636C203.998 46.1906 203.941 46.4177 203.884 46.7583C203.203 49.4263 202.862 51.2428 202.862 52.2078C202.862 52.6619 202.976 53.0593 203.203 53.3999C202.749 53.6837 202.295 53.854 201.841 53.854C201.046 53.854 200.648 53.4567 200.648 52.7187C200.648 52.0943 200.819 51.0157 201.159 49.5398C201.5 48.0639 201.67 46.9854 201.67 46.3609C201.727 46.0771 201.67 45.7933 201.557 45.5662ZM204.281 43.9768C203.827 44.2038 203.43 44.3174 203.089 44.3174C202.522 44.3174 202.295 44.1471 202.295 43.8632C202.295 43.7497 202.295 43.5794 202.351 43.4091C202.408 43.182 202.408 43.0685 202.408 42.955C202.408 42.8982 202.408 42.7847 202.351 42.7279C202.862 42.5576 203.316 42.4441 203.657 42.4441C204.225 42.4441 204.565 42.6712 204.565 43.1253C204.565 43.2388 204.452 43.5794 204.281 43.9768Z" fill="white"/>
<path d="M206.041 47.6666H205.757C205.303 47.6666 204.849 47.7802 204.395 47.9505C204.395 47.7802 204.338 47.6099 204.338 47.4963C204.338 47.099 204.451 46.8151 204.622 46.6448C204.792 46.4745 205.36 46.361 206.268 46.361C206.495 45.2257 206.609 44.4877 206.609 44.2039C206.609 43.9201 206.552 43.693 206.438 43.4092C207.006 43.1821 207.517 43.0686 207.971 43.0686C208.595 43.0686 208.936 43.2957 208.936 43.8066C208.936 44.0904 208.879 44.5445 208.709 45.0554C208.482 45.9069 208.368 46.3043 208.368 46.3043H209.049C209.56 46.3043 210.185 46.2475 210.809 46.134C210.752 47.099 210.185 47.6099 209.106 47.6099C208.993 47.6099 208.822 47.6099 208.652 47.6099C208.425 47.6099 208.255 47.6099 208.141 47.6099C207.744 49.4264 207.574 50.6184 207.574 51.2429C207.574 51.8673 207.801 52.2079 208.255 52.2079C208.652 52.2079 209.163 51.9808 209.731 51.5835C209.844 51.8673 209.958 52.0944 209.958 52.2647C209.958 52.7188 209.674 53.0594 209.163 53.3432C208.652 53.627 208.084 53.7973 207.46 53.7973C206.098 53.7973 205.416 53.1161 205.416 51.8105C205.416 50.959 205.644 49.5967 206.041 47.6666Z" fill="white"/>
<path d="M211.094 45.8499C211.662 45.4525 212.23 45.2255 212.854 45.2255C213.422 45.2255 213.762 45.6796 213.876 46.6446C213.989 48.3476 214.16 49.8803 214.387 51.1859L215.863 48.6882C216.487 47.4961 216.828 46.5878 216.828 46.0202C216.828 45.8499 216.771 45.6228 216.714 45.2822C218.02 45.339 218.644 45.6228 218.644 46.1905C218.644 46.8717 217.622 48.6314 215.636 51.4697C213.649 54.308 212.116 55.7271 210.981 55.7271C210.3 55.7271 209.959 55.5001 209.959 55.0459C209.959 54.7053 210.129 54.308 210.527 53.7971C210.754 53.9674 210.981 54.0809 211.265 54.0809C211.889 54.0809 212.4 53.6836 212.854 52.8888C212.173 48.972 211.605 46.5878 211.094 45.8499Z" fill="white"/>
</g>
<defs>
<filter id="filter0_d_2768_1868" x="0" y="0.00012207" width="231.781" height="63.8974" filterUnits="userSpaceOnUse" color-interpolation-filters="sRGB">
<feFlood flood-opacity="0" result="BackgroundImageFix"/>
<feColorMatrix in="SourceAlpha" type="matrix" values="0 0 0 0 0 0 0 0 0 0 0 0 0 0 0 0 0 0 127 0" result="hardAlpha"/>
<feOffset dy="4"/>
<feGaussianBlur stdDeviation="2"/>
<feComposite in2="hardAlpha" operator="out"/>
<feColorMatrix type="matrix" values="0 0 0 0 0 0 0 0 0 0 0 0 0 0 0 0 0 0 0.25 0"/>
<feBlend mode="normal" in2="BackgroundImageFix" result="effect1_dropShadow_2768_1868"/>
<feBlend mode="normal" in="SourceGraphic" in2="effect1_dropShadow_2768_1868" result="shape"/>
</filter>
</defs>
</svg>
